G04 DipTrace 3.3.1.3*
G04 Bottom.gbr*
%MOIN*%
G04 #@! TF.FileFunction,Copper,L2,Bot*
G04 #@! TF.Part,Single*
G04 #@! TA.AperFunction,ComponentPad*
%ADD13C,0.05*%
G04 #@! TA.AperFunction,CopperBalancing*
%ADD14C,0.025*%
G04 #@! TA.AperFunction,Conductor*
%ADD15C,0.016*%
G04 #@! TA.AperFunction,ComponentPad*
%ADD17C,0.059055*%
%ADD18R,0.059055X0.059055*%
%ADD19R,0.0591X0.0591*%
%ADD20C,0.0591*%
%ADD24C,0.05*%
G04 #@! TA.AperFunction,ViaPad*
%ADD25C,0.04*%
%FSLAX26Y26*%
G04*
G70*
G90*
G75*
G01*
G04 Bottom*
%LPD*%
X3452200Y1019700D2*
D13*
X3276751Y844251D1*
X2665251D1*
X5131200Y1118700D2*
Y836228D1*
X5102200Y807228D1*
X5007672D1*
X4901704Y913196D1*
X4668200D1*
X5131200Y836228D2*
X5194200D1*
X5228728Y801700D1*
X5744200D1*
X5807200Y864700D1*
Y1081200D1*
X2665251Y844251D2*
X1386157D1*
X1372704Y857704D1*
Y928200D1*
X2568700Y718700D2*
X2830700D1*
X2810700Y698700D1*
Y639200D1*
X2906200Y543700D1*
X2781251Y944200D2*
X2739223Y986228D1*
X2386228D1*
X2318700Y918700D1*
X1676704Y718700D2*
D14*
X1814200D1*
X1318700Y1118700D2*
D13*
X1386228Y1186228D1*
X1851172D1*
X1918700Y1118700D1*
X1093700D2*
Y1022172D1*
X968196D1*
X590228D1*
X493700Y1118700D1*
X2868700Y718700D2*
X2830700D1*
X5031200Y1118700D2*
X5098728Y1186228D1*
X5563672D1*
X5631200Y1118700D1*
X968196Y1022172D2*
Y794704D1*
X4038676Y882200D2*
Y807228D1*
X4101676Y744228D1*
X4194200D1*
X2318700Y918700D2*
X1982200D1*
X2719200Y1143700D2*
Y1236228D1*
X3038672D1*
X3106200Y1168700D1*
X2086228Y1143700D2*
X2144227D1*
X2236755Y1236228D1*
X2626672D1*
X2719200Y1143700D1*
X1918700Y1118700D2*
Y1206700D1*
X2066228D1*
X2086228Y1186700D1*
Y1143700D1*
X5468700Y864700D2*
X5394200D1*
X5331200Y927700D1*
Y1118700D1*
X3606200Y1168700D2*
D15*
Y1006267D1*
X3943239Y669228D1*
X4980672D1*
X5031200Y618700D1*
X693700D2*
X793700D1*
X1518700D2*
X1618700D1*
X4843700Y855200D2*
X4519700D1*
X4206200Y1168700D1*
X4418700Y814200D2*
X4135200D1*
X4106200Y843200D1*
Y1168700D1*
X4589200Y1052200D2*
X4422172Y1219228D1*
X4056728D1*
X4006200Y1168700D1*
X2085704Y485700D2*
Y745983D1*
X2968700Y751228D2*
X3777200D1*
X3806200Y722228D1*
Y543700D1*
X5822728Y643700D2*
Y473700D1*
X5793728Y444700D1*
X3505200D1*
X3406200Y543700D1*
X5531700Y864700D2*
D13*
Y907700D1*
X5511700Y927700D1*
X5494200D1*
X5431200Y990700D1*
Y1118700D1*
X5744200Y968700D2*
X5722200Y990700D1*
X5531200D1*
Y1118700D1*
X493700Y618700D2*
D15*
X544228Y669228D1*
X1215228D1*
X1244228Y698228D1*
Y1253228D1*
X1273228Y1282228D1*
X3092672D1*
X3206200Y1168700D1*
X3406200D2*
X3277200Y1039700D1*
X1347700D1*
X1318700Y1010700D1*
Y618700D1*
X3506200Y1168700D2*
Y827251D1*
X3477200Y798251D1*
X1447700D1*
X1418700Y769251D1*
Y618700D1*
X4018700Y606228D2*
X4143672D1*
X4206200Y543700D1*
X3706200Y1168700D2*
Y999901D1*
X4007873Y698228D1*
X5051672D1*
X5131200Y618700D1*
X5485696Y669228D2*
X5511200D1*
X5531200Y649228D1*
Y618700D1*
X1474483Y669228D2*
X1668172D1*
X1718700Y618700D1*
X2268700D2*
X2353231Y534169D1*
X2660251D1*
X5781728Y743700D2*
Y502700D1*
X5752728Y473700D1*
X3576200D1*
X3506200Y543700D1*
X5231200Y618700D2*
X5331200D1*
X3268700Y710228D2*
X3677200D1*
X3706200Y681228D1*
Y543700D1*
X3568700Y669228D2*
X3606200Y631728D1*
Y543700D1*
X2368700Y718700D2*
X2318149Y769251D1*
X2219251D1*
X2143700Y693700D1*
D25*
X4668200Y913196D3*
X5807200Y1081200D3*
X1372704Y928200D3*
X2665251Y844251D3*
X3452200Y1019700D3*
X1982200Y918700D3*
X1814200Y718700D3*
X2781251Y944200D3*
X2719200Y1143700D3*
X4194200Y744228D3*
X4038676Y882200D3*
X1676704Y718700D3*
X968196Y794704D3*
X2868700Y718700D3*
X2086228Y1143700D3*
X5468700Y864700D3*
X4843700Y855200D3*
X4418700Y814200D3*
X4589200Y1052200D3*
X2085704Y745983D3*
Y485700D3*
X2968700Y751228D3*
X5822728Y643700D3*
X5531700Y864700D3*
X5744200Y968700D3*
X4018700Y606228D3*
X5485696Y669228D3*
X1474483D3*
X2660251Y534169D3*
X5781728Y743700D3*
X3268700Y710228D3*
X3568700Y669228D3*
X584283Y1280331D2*
D14*
X1220031D1*
X3145876D2*
X6015630D1*
X590886Y1255462D2*
X1207292D1*
X3170744D2*
X6009027D1*
X590706Y1230594D2*
X1207221D1*
X1281226D2*
X1357575D1*
X2117650D2*
X2155783D1*
X3195611D2*
X4016809D1*
X4462108D2*
X5070081D1*
X5592316D2*
X6009207D1*
X583709Y1205725D2*
X1207221D1*
X1281226D2*
X1330375D1*
X3250765D2*
X3261662D1*
X3350739D2*
X3361635D1*
X3450748D2*
X3461645D1*
X3550757D2*
X3561634D1*
X3650766D2*
X3661618D1*
X3750740D2*
X3761636D1*
X3850749D2*
X3861646D1*
X3950758D2*
X3961655D1*
X4486976D2*
X5042881D1*
X5619516D2*
X6016168D1*
X567992Y1180856D2*
X1207221D1*
X1281226D2*
X1305507D1*
X2256702D2*
X2606704D1*
X4263381D2*
X4409238D1*
X4511843D2*
X5018014D1*
X5644384D2*
X6031921D1*
X638002Y1155987D2*
X649401D1*
X738011D2*
X749408D1*
X838020D2*
X849383D1*
X938030D2*
X949393D1*
X2231834D2*
X2631572D1*
X4270199D2*
X4434106D1*
X4536711D2*
X4972656D1*
X5775505D2*
X6066191D1*
X6146224D2*
X6165195D1*
X2206966Y1131119D2*
X2656439D1*
X2850262D2*
X2862163D1*
X2950271D2*
X2962137D1*
X3050244D2*
X3062146D1*
X3150254D2*
X3162155D1*
X3250263D2*
X3262129D1*
X3450246D2*
X3462147D1*
X3550255D2*
X3562146D1*
X3650264D2*
X3662134D1*
X3750237D2*
X3762139D1*
X3850247D2*
X3862148D1*
X3950256D2*
X3962157D1*
X4050265D2*
X4062131D1*
X4150238D2*
X4162140D1*
X4295067D2*
X4458974D1*
X4561579D2*
X4972656D1*
X5822370D2*
X6165195D1*
X2182062Y1106250D2*
X2681343D1*
X2757035D2*
X3292451D1*
X3395056D2*
X3469216D1*
X3543186D2*
X3569189D1*
X3643195D2*
X3669199D1*
X3743204D2*
X4069200D1*
X4143205D2*
X4217366D1*
X4319935D2*
X4483877D1*
X4586447D2*
X4972656D1*
X5854701D2*
X6165195D1*
X2062999Y1081381D2*
X3267583D1*
X3370188D2*
X3469216D1*
X3543186D2*
X3569189D1*
X3643195D2*
X3669199D1*
X3743204D2*
X4069200D1*
X4143205D2*
X4242233D1*
X4344802D2*
X4508745D1*
X4627893D2*
X4972656D1*
X5861196D2*
X6165195D1*
X434718Y1056512D2*
X480566D1*
X1147701D2*
X1207221D1*
X1281226D2*
X1313222D1*
X3345320D2*
X3413667D1*
X3543186D2*
X3569189D1*
X3643195D2*
X3669199D1*
X3743204D2*
X4069200D1*
X4143205D2*
X4267101D1*
X4369670D2*
X4533613D1*
X4638012D2*
X5077187D1*
X5185210D2*
X5277205D1*
X5585211D2*
X5753209D1*
X5861196D2*
X6165195D1*
X434718Y1031644D2*
X505434D1*
X1147701D2*
X1207221D1*
X1281226D2*
X1288803D1*
X3320417D2*
X3388800D1*
X3543186D2*
X3569189D1*
X3643195D2*
X3669199D1*
X3743204D2*
X4069200D1*
X4143205D2*
X4291969D1*
X4394538D2*
X4544988D1*
X4633419D2*
X5077187D1*
X5185210D2*
X5277205D1*
X5861196D2*
X6165195D1*
X434718Y1006775D2*
X530301D1*
X1145332D2*
X1207221D1*
X3290023D2*
X3363932D1*
X3543186D2*
X3569189D1*
X3656974D2*
X3669199D1*
X3750632D2*
X4069200D1*
X4143205D2*
X4316837D1*
X4419406D2*
X4576746D1*
X4601626D2*
X5077187D1*
X5185210D2*
X5277205D1*
X5861196D2*
X6165195D1*
X434718Y981906D2*
X555636D1*
X1128323D2*
X1207221D1*
X1355686D2*
X2091084D1*
X2196344D2*
X2306569D1*
X2818863D2*
X3339064D1*
X3543186D2*
X3579273D1*
X3775500D2*
X4069200D1*
X4143205D2*
X4341704D1*
X4444273D2*
X5077187D1*
X5185210D2*
X5277205D1*
X5861196D2*
X6165195D1*
X434718Y957037D2*
X914190D1*
X1022214D2*
X1207221D1*
X1417873D2*
X1945322D1*
X2833612D2*
X3314196D1*
X3543186D2*
X3604141D1*
X3800368D2*
X4069200D1*
X4143205D2*
X4366572D1*
X4469141D2*
X4638682D1*
X4931222D2*
X5077187D1*
X5185210D2*
X5277205D1*
X5861196D2*
X6165195D1*
X434718Y932169D2*
X914190D1*
X1022214D2*
X1207221D1*
X1426557D2*
X1930000D1*
X2407487D2*
X2461804D1*
X2575568D2*
X2717945D1*
X2833827D2*
X3289329D1*
X3440019D2*
X3469216D1*
X3543186D2*
X3629008D1*
X3825235D2*
X4023699D1*
X4053638D2*
X4069200D1*
X4143205D2*
X4391440D1*
X4494009D2*
X4617833D1*
X4958063D2*
X5077187D1*
X5185210D2*
X5277205D1*
X5402058D2*
X5414390D1*
X5579505D2*
X5705411D1*
X5861196D2*
X6165195D1*
X434718Y907300D2*
X914190D1*
X1022214D2*
X1207221D1*
X1426700D2*
X1929462D1*
X2382619D2*
X2461337D1*
X2576071D2*
X2742813D1*
X2819689D2*
X3264461D1*
X3415115D2*
X3469216D1*
X3543186D2*
X3653876D1*
X3850103D2*
X3991223D1*
X4143205D2*
X4416307D1*
X4518877D2*
X4614532D1*
X4982931D2*
X5077187D1*
X5185210D2*
X5281403D1*
X5585713D2*
X5753209D1*
X5861196D2*
X6165195D1*
X434718Y882431D2*
X914190D1*
X1022214D2*
X1207221D1*
X3390247D2*
X3469216D1*
X3543186D2*
X3678744D1*
X3874971D2*
X3984692D1*
X4143205D2*
X4441175D1*
X5007799D2*
X5077187D1*
X5219444D2*
X5301140D1*
X5585713D2*
X5749584D1*
X5861196D2*
X6165195D1*
X434718Y857562D2*
X914190D1*
X1022214D2*
X1207221D1*
X3365379D2*
X3469216D1*
X3543186D2*
X3703612D1*
X3899838D2*
X3984692D1*
X4143205D2*
X4399406D1*
X4437994D2*
X4466043D1*
X5248187D2*
X5326007D1*
X5585211D2*
X5724717D1*
X5860694D2*
X6165195D1*
X434718Y832693D2*
X914190D1*
X1022214D2*
X1207221D1*
X3543186D2*
X3728479D1*
X3924706D2*
X3984692D1*
X4463866D2*
X4490911D1*
X4886905D2*
X4906880D1*
X5850036D2*
X6165195D1*
X434718Y807825D2*
X914190D1*
X1022214D2*
X1207221D1*
X3537229D2*
X3753347D1*
X3949574D2*
X3984692D1*
X4467275D2*
X4931748D1*
X5825671D2*
X6165195D1*
X434718Y782956D2*
X915554D1*
X1020850D2*
X1207221D1*
X1355686D2*
X1384524D1*
X3974442D2*
X3990757D1*
X4455649D2*
X4956616D1*
X5153273D2*
X5172136D1*
X5809164D2*
X6165195D1*
X434718Y758087D2*
X929477D1*
X1006927D2*
X1207221D1*
X1355686D2*
X1381689D1*
X1458817D2*
X1649493D1*
X1703906D2*
X1787001D1*
X1841414D2*
X2038298D1*
X2133116D2*
X2156788D1*
X2904375D2*
X2920224D1*
X3999309D2*
X4012503D1*
X4246300D2*
X4989773D1*
X5120116D2*
X5198834D1*
X5828434D2*
X6165195D1*
X434718Y733218D2*
X1207221D1*
X1355686D2*
X1381689D1*
X1455695D2*
X1630044D1*
X1860863D2*
X2038478D1*
X4024177D2*
X4037370D1*
X4247018D2*
X5733939D1*
X5829546D2*
X6165195D1*
X434718Y708350D2*
X1203058D1*
X1355686D2*
X1381689D1*
X1502129D2*
X1628860D1*
X1862047D2*
X2048705D1*
X2921636D2*
X2948214D1*
X2989205D2*
X3219749D1*
X3730357D2*
X3768777D1*
X3843213D2*
X3852800D1*
X5092844D2*
X5458061D1*
X5513335D2*
X5744740D1*
X5818745D2*
X6165195D1*
X434718Y683481D2*
X507192D1*
X1355686D2*
X1381689D1*
X1847048D2*
X2048705D1*
X2196667D2*
X2222600D1*
X2314798D2*
X2322609D1*
X2414807D2*
X2422592D1*
X2908789D2*
X3228146D1*
X3743132D2*
X3769208D1*
X3843213D2*
X3877686D1*
X5117712D2*
X5438935D1*
X5548250D2*
X5744740D1*
X5849319D2*
X6165195D1*
X434718Y658612D2*
X451894D1*
X1255892D2*
X1276872D1*
X1360530D2*
X1376881D1*
X1760531D2*
X1776882D1*
X1860504D2*
X1876891D1*
X1960514D2*
X1976865D1*
X2183893D2*
X2226834D1*
X2310564D2*
X2326843D1*
X2410537D2*
X2426852D1*
X2510546D2*
X2526862D1*
X2610556D2*
X2756700D1*
X2866625D2*
X3520925D1*
X3630599D2*
X3669199D1*
X3743204D2*
X3769208D1*
X3843213D2*
X3902554D1*
X5173009D2*
X5189396D1*
X5273019D2*
X5289370D1*
X5373028D2*
X5389379D1*
X5573010D2*
X5589362D1*
X5673020D2*
X5689371D1*
X5869270D2*
X6165195D1*
X1250186Y633743D2*
X1262231D1*
X2122710D2*
X2212193D1*
X2625196D2*
X2756987D1*
X2891493D2*
X3536140D1*
X3643159D2*
X3669199D1*
X3743204D2*
X3769208D1*
X3843213D2*
X3978700D1*
X4166996D2*
X4964869D1*
X5870634D2*
X6165195D1*
X1251370Y608875D2*
X1261047D1*
X2122710D2*
X2211009D1*
X2626380D2*
X2766568D1*
X2916361D2*
X3569189D1*
X3643195D2*
X3669199D1*
X3743204D2*
X3769208D1*
X3843213D2*
X3969765D1*
X4192330D2*
X4973553D1*
X5859725D2*
X6165195D1*
X434718Y584006D2*
X447176D1*
X1240210D2*
X1272207D1*
X2122710D2*
X2222169D1*
X2615220D2*
X2764774D1*
X2947616D2*
X2964792D1*
X3047625D2*
X3064765D1*
X3147634D2*
X3164775D1*
X3247608D2*
X3264784D1*
X3347617D2*
X3364793D1*
X3447626D2*
X3464767D1*
X3547599D2*
X3564776D1*
X3647609D2*
X3664785D1*
X3747618D2*
X3764794D1*
X3847627D2*
X3864768D1*
X3947600D2*
X3964777D1*
X4247628D2*
X4984713D1*
X5859725D2*
X6072937D1*
X6139442D2*
X6165195D1*
X565623Y559137D2*
X2048705D1*
X2122710D2*
X2276964D1*
X2701988D2*
X2749846D1*
X4262556D2*
X5744740D1*
X5859725D2*
X6034290D1*
X582561Y534268D2*
X2048705D1*
X2122710D2*
X2301832D1*
X2709237D2*
X2748482D1*
X4263919D2*
X5744740D1*
X5859725D2*
X6017352D1*
X590312Y509400D2*
X2043214D1*
X2128200D2*
X2326700D1*
X2702096D2*
X2759391D1*
X4253011D2*
X5737133D1*
X5859725D2*
X6009601D1*
X591173Y484531D2*
X2036719D1*
X2134695D2*
X3414062D1*
X5859725D2*
X6008740D1*
X585324Y459662D2*
X2044686D1*
X2126729D2*
X3438930D1*
X5856747D2*
X6014589D1*
X571257Y434793D2*
X3463834D1*
X5835109D2*
X6028656D1*
X2856200Y1143436D2*
X2851527Y1135768D1*
X2845817Y1129083D1*
X2839132Y1123373D1*
X2831636Y1118779D1*
X2823513Y1115415D1*
X2814965Y1113362D1*
X2806200Y1112672D1*
X2797435Y1113362D1*
X2788887Y1115415D1*
X2780764Y1118779D1*
X2773268Y1123373D1*
X2768135Y1127648D1*
X2765087Y1120319D1*
X2760864Y1113429D1*
X2755616Y1107284D1*
X2749471Y1102036D1*
X2742581Y1097813D1*
X2735114Y1094721D1*
X2727256Y1092834D1*
X2719200Y1092200D1*
X2711144Y1092834D1*
X2703286Y1094721D1*
X2695819Y1097813D1*
X2688929Y1102036D1*
X2682784Y1107284D1*
X2605317Y1184751D1*
X2258106Y1184728D1*
X2177674Y1104539D1*
X2171136Y1099789D1*
X2163935Y1096120D1*
X2156249Y1093623D1*
X2148268Y1092359D1*
X2116668Y1092200D1*
X2082187Y1092359D1*
X2074206Y1093623D1*
X2070299Y1094726D1*
X2068621Y1093264D1*
X2064027Y1085768D1*
X2058317Y1079083D1*
X2052671Y1074192D1*
X3262875Y1074200D1*
X3301548Y1112839D1*
X3293121Y1114220D1*
X3284759Y1116937D1*
X3276926Y1120929D1*
X3269813Y1126096D1*
X3263596Y1132313D1*
X3258429Y1139426D1*
X3256121Y1143264D1*
X3251527Y1135768D1*
X3245817Y1129083D1*
X3239132Y1123373D1*
X3231636Y1118779D1*
X3223513Y1115415D1*
X3214965Y1113362D1*
X3206200Y1112672D1*
X3197435Y1113362D1*
X3188887Y1115415D1*
X3180764Y1118779D1*
X3173268Y1123373D1*
X3166583Y1129083D1*
X3160873Y1135768D1*
X3156200Y1143436D1*
X3151527Y1135768D1*
X3145817Y1129083D1*
X3139132Y1123373D1*
X3131636Y1118779D1*
X3123513Y1115415D1*
X3114965Y1113362D1*
X3106200Y1112672D1*
X3097435Y1113362D1*
X3088887Y1115415D1*
X3080764Y1118779D1*
X3073268Y1123373D1*
X3066583Y1129083D1*
X3060873Y1135768D1*
X3056200Y1143436D1*
X3051527Y1135768D1*
X3045817Y1129083D1*
X3039132Y1123373D1*
X3031636Y1118779D1*
X3023513Y1115415D1*
X3014965Y1113362D1*
X3006200Y1112672D1*
X2997435Y1113362D1*
X2988887Y1115415D1*
X2980764Y1118779D1*
X2973268Y1123373D1*
X2966583Y1129083D1*
X2960873Y1135768D1*
X2956200Y1143436D1*
X2951527Y1135768D1*
X2945817Y1129083D1*
X2939132Y1123373D1*
X2931636Y1118779D1*
X2923513Y1115415D1*
X2914965Y1113362D1*
X2906200Y1112672D1*
X2897435Y1113362D1*
X2888887Y1115415D1*
X2880764Y1118779D1*
X2873268Y1123373D1*
X2866583Y1129083D1*
X2860873Y1135768D1*
X2856200Y1143436D1*
X3199432Y1224274D2*
X3206200Y1224728D1*
X3214965Y1224038D1*
X3223513Y1221985D1*
X3231636Y1218621D1*
X3239132Y1214027D1*
X3245817Y1208317D1*
X3251527Y1201632D1*
X3256200Y1193964D1*
X3260873Y1201632D1*
X3266583Y1208317D1*
X3273268Y1214027D1*
X3280764Y1218621D1*
X3288887Y1221985D1*
X3297435Y1224038D1*
X3306200Y1224728D1*
X3314965Y1224038D1*
X3323513Y1221985D1*
X3331636Y1218621D1*
X3339132Y1214027D1*
X3345817Y1208317D1*
X3351527Y1201632D1*
X3356200Y1193964D1*
X3360873Y1201632D1*
X3366583Y1208317D1*
X3373268Y1214027D1*
X3380764Y1218621D1*
X3388887Y1221985D1*
X3397435Y1224038D1*
X3406200Y1224728D1*
X3414965Y1224038D1*
X3423513Y1221985D1*
X3431636Y1218621D1*
X3439132Y1214027D1*
X3445817Y1208317D1*
X3451527Y1201632D1*
X3456200Y1193964D1*
X3460873Y1201632D1*
X3466583Y1208317D1*
X3473268Y1214027D1*
X3480764Y1218621D1*
X3488887Y1221985D1*
X3497435Y1224038D1*
X3506200Y1224728D1*
X3514965Y1224038D1*
X3523513Y1221985D1*
X3531636Y1218621D1*
X3539132Y1214027D1*
X3545817Y1208317D1*
X3551527Y1201632D1*
X3556200Y1193964D1*
X3560873Y1201632D1*
X3566583Y1208317D1*
X3573268Y1214027D1*
X3580764Y1218621D1*
X3588887Y1221985D1*
X3597435Y1224038D1*
X3606200Y1224728D1*
X3614965Y1224038D1*
X3623513Y1221985D1*
X3631636Y1218621D1*
X3639132Y1214027D1*
X3645817Y1208317D1*
X3651527Y1201632D1*
X3656200Y1193964D1*
X3660873Y1201632D1*
X3666583Y1208317D1*
X3673268Y1214027D1*
X3680764Y1218621D1*
X3688887Y1221985D1*
X3697435Y1224038D1*
X3706200Y1224728D1*
X3714965Y1224038D1*
X3723513Y1221985D1*
X3731636Y1218621D1*
X3739132Y1214027D1*
X3745817Y1208317D1*
X3751527Y1201632D1*
X3756200Y1193964D1*
X3760873Y1201632D1*
X3766583Y1208317D1*
X3773268Y1214027D1*
X3780764Y1218621D1*
X3788887Y1221985D1*
X3797435Y1224038D1*
X3806200Y1224728D1*
X3814965Y1224038D1*
X3823513Y1221985D1*
X3831636Y1218621D1*
X3839132Y1214027D1*
X3845817Y1208317D1*
X3851527Y1201632D1*
X3856200Y1193964D1*
X3860873Y1201632D1*
X3866583Y1208317D1*
X3873268Y1214027D1*
X3880764Y1218621D1*
X3888887Y1221985D1*
X3897435Y1224038D1*
X3906200Y1224728D1*
X3914965Y1224038D1*
X3923513Y1221985D1*
X3931636Y1218621D1*
X3939132Y1214027D1*
X3945817Y1208317D1*
X3951527Y1201632D1*
X3956200Y1193964D1*
X3960873Y1201632D1*
X3966583Y1208317D1*
X3973268Y1214027D1*
X3980764Y1218621D1*
X3988887Y1221985D1*
X3997435Y1224038D1*
X4006200Y1224728D1*
X4012968Y1224274D1*
X4034322Y1245462D1*
X4038702Y1248644D1*
X4043525Y1251102D1*
X4048674Y1252775D1*
X4054021Y1253622D1*
X4111846Y1253728D1*
X4424879Y1253622D1*
X4430226Y1252775D1*
X4435375Y1251102D1*
X4440198Y1248644D1*
X4444578Y1245462D1*
X4485542Y1204649D1*
X4591529Y1098662D1*
X4600055Y1097415D1*
X4606995Y1095160D1*
X4613496Y1091848D1*
X4619399Y1087559D1*
X4624559Y1082399D1*
X4628848Y1076496D1*
X4632160Y1069995D1*
X4634415Y1063055D1*
X4635557Y1055848D1*
Y1048552D1*
X4634415Y1041345D1*
X4632160Y1034405D1*
X4628848Y1027904D1*
X4624559Y1022001D1*
X4619399Y1016841D1*
X4613496Y1012552D1*
X4606995Y1009240D1*
X4600055Y1006985D1*
X4592848Y1005843D1*
X4585552D1*
X4578345Y1006985D1*
X4571405Y1009240D1*
X4564904Y1012552D1*
X4559001Y1016841D1*
X4553841Y1022001D1*
X4549552Y1027904D1*
X4546240Y1034405D1*
X4543985Y1041345D1*
X4542843Y1048552D1*
X4542794Y1049820D1*
X4407867Y1184743D1*
X4259868Y1184728D1*
X4261538Y1177465D1*
X4262228Y1168700D1*
X4261774Y1161932D1*
X4533992Y889699D1*
X4622313Y889815D1*
X4619220Y897282D1*
X4617334Y905140D1*
X4616700Y913196D1*
X4617334Y921252D1*
X4619220Y929110D1*
X4622313Y936577D1*
X4626536Y943467D1*
X4631784Y949612D1*
X4637929Y954860D1*
X4644819Y959083D1*
X4652286Y962176D1*
X4660144Y964062D1*
X4668200Y964696D1*
X4905745Y964537D1*
X4913726Y963273D1*
X4921412Y960776D1*
X4928613Y957107D1*
X4935151Y952357D1*
X4957607Y930125D1*
X5028984Y858748D1*
X5079692Y858728D1*
X5079700Y1062693D1*
X4975173Y1062672D1*
Y1174727D1*
X5014394D1*
X5065281Y1225389D1*
X5071819Y1230139D1*
X5079020Y1233808D1*
X5086706Y1236305D1*
X5094687Y1237569D1*
X5126287Y1237728D1*
X5567713Y1237569D1*
X5575694Y1236305D1*
X5583380Y1233808D1*
X5590581Y1230139D1*
X5597119Y1225389D1*
X5619575Y1203157D1*
X5648020Y1174713D1*
X5687228Y1174727D1*
Y1153448D1*
X5691583Y1158317D1*
X5698268Y1164027D1*
X5705764Y1168621D1*
X5713887Y1171985D1*
X5722435Y1174038D1*
X5731200Y1174728D1*
X5739965Y1174038D1*
X5748513Y1171985D1*
X5756636Y1168621D1*
X5764132Y1164027D1*
X5770817Y1158317D1*
X5776527Y1151632D1*
X5781121Y1144136D1*
X5784485Y1136013D1*
X5786373Y1128291D1*
X5791286Y1130180D1*
X5799144Y1132066D1*
X5807200Y1132700D1*
X5815256Y1132066D1*
X5823114Y1130180D1*
X5830581Y1127087D1*
X5837471Y1122864D1*
X5843616Y1117616D1*
X5848864Y1111471D1*
X5853087Y1104581D1*
X5856180Y1097114D1*
X5858066Y1089256D1*
X5858700Y1081200D1*
X5858541Y860659D1*
X5857277Y852678D1*
X5854780Y844992D1*
X5851111Y837791D1*
X5846361Y831253D1*
X5824129Y808797D1*
X5801216Y785884D1*
X5806024Y783348D1*
X5811927Y779059D1*
X5817087Y773899D1*
X5821376Y767996D1*
X5824688Y761495D1*
X5826943Y754555D1*
X5828085Y747348D1*
Y740052D1*
X5826943Y732845D1*
X5824688Y725905D1*
X5821376Y719404D1*
X5817087Y713501D1*
X5816225Y712569D1*
X5816228Y689766D1*
X5822728Y690200D1*
X5830002Y689628D1*
X5837097Y687924D1*
X5843839Y685132D1*
X5850060Y681319D1*
X5855608Y676580D1*
X5860347Y671032D1*
X5864160Y664811D1*
X5866952Y658069D1*
X5868656Y650974D1*
X5869228Y643700D1*
X5868656Y636426D1*
X5866952Y629331D1*
X5864160Y622589D1*
X5860347Y616368D1*
X5857225Y612569D1*
X5857122Y470993D1*
X5856275Y465646D1*
X5854602Y460497D1*
X5852144Y455674D1*
X5848962Y451294D1*
X5829996Y432177D1*
X6033243Y432200D1*
X6029020Y437625D1*
X6024858Y443853D1*
X6021198Y450389D1*
X6018062Y457192D1*
X6015469Y464220D1*
X6013436Y471429D1*
X6011974Y478776D1*
X6011094Y486215D1*
X6010800Y493700D1*
X6011094Y501185D1*
X6011974Y508624D1*
X6013436Y515971D1*
X6015469Y523180D1*
X6018062Y530208D1*
X6021198Y537011D1*
X6024858Y543547D1*
X6029020Y549775D1*
X6033657Y555658D1*
X6038742Y561158D1*
X6044242Y566243D1*
X6050125Y570880D1*
X6056353Y575042D1*
X6062889Y578702D1*
X6069692Y581838D1*
X6076720Y584431D1*
X6083929Y586464D1*
X6091276Y587926D1*
X6098715Y588806D1*
X6106200Y589100D1*
X6113685Y588806D1*
X6121124Y587926D1*
X6128471Y586464D1*
X6135680Y584431D1*
X6142708Y581838D1*
X6149511Y578702D1*
X6156047Y575042D1*
X6162275Y570880D1*
X6167700Y566682D1*
Y1170792D1*
X6162275Y1166520D1*
X6156047Y1162358D1*
X6149511Y1158698D1*
X6142708Y1155562D1*
X6135680Y1152969D1*
X6128471Y1150936D1*
X6121124Y1149474D1*
X6113685Y1148594D1*
X6106200Y1148300D1*
X6098715Y1148594D1*
X6091276Y1149474D1*
X6083929Y1150936D1*
X6076720Y1152969D1*
X6069692Y1155562D1*
X6062889Y1158698D1*
X6056353Y1162358D1*
X6050125Y1166520D1*
X6044242Y1171157D1*
X6038742Y1176242D1*
X6033657Y1181742D1*
X6029020Y1187625D1*
X6024858Y1193853D1*
X6021198Y1200389D1*
X6018062Y1207192D1*
X6015469Y1214220D1*
X6013436Y1221429D1*
X6011974Y1228776D1*
X6011094Y1236215D1*
X6010800Y1243700D1*
X6011094Y1251185D1*
X6011974Y1258624D1*
X6013436Y1265971D1*
X6015469Y1273180D1*
X6018062Y1280208D1*
X6021198Y1287011D1*
X6024858Y1293547D1*
X6029020Y1299775D1*
X6033218Y1305200D1*
X3118525D1*
X3199355Y1224336D1*
X3456200Y1143436D2*
X3451527Y1135768D1*
X3445817Y1129083D1*
X3439132Y1123373D1*
X3431636Y1118779D1*
X3423513Y1115415D1*
X3414965Y1113362D1*
X3406200Y1112672D1*
X3399432Y1113126D1*
X3299606Y1013466D1*
X3295226Y1010284D1*
X3290403Y1007826D1*
X3285254Y1006153D1*
X3279907Y1005306D1*
X3222082Y1005200D1*
X2793086D1*
X2820412Y977647D1*
X2825162Y971109D1*
X2828831Y963908D1*
X2831328Y956222D1*
X2832592Y948241D1*
Y940159D1*
X2831328Y932178D1*
X2828831Y924492D1*
X2825162Y917291D1*
X2820412Y910753D1*
X2814698Y905039D1*
X2808160Y900289D1*
X2800959Y896620D1*
X2798603Y895751D1*
X3255438D1*
X3418753Y1058861D1*
X3425291Y1063611D1*
X3432492Y1067280D1*
X3440178Y1069777D1*
X3448159Y1071041D1*
X3456241D1*
X3464222Y1069777D1*
X3471686Y1067362D1*
X3471700Y1124551D1*
X3466583Y1129083D1*
X3460873Y1135768D1*
X3456200Y1143436D1*
X3556200D2*
X3551527Y1135768D1*
X3545817Y1129083D1*
X3540711Y1124618D1*
X3540594Y824544D1*
X3539747Y819197D1*
X3538074Y814048D1*
X3535616Y809225D1*
X3532434Y804845D1*
X3513468Y785728D1*
X3777211D1*
X3775938Y787739D1*
X3579966Y983861D1*
X3576784Y988241D1*
X3574326Y993064D1*
X3572653Y998213D1*
X3571806Y1003560D1*
X3571700Y1061385D1*
Y1124577D1*
X3566583Y1129083D1*
X3560873Y1135768D1*
X3556200Y1143436D1*
X3656200D2*
X3651527Y1135768D1*
X3645817Y1129083D1*
X3640711Y1124618D1*
X3640700Y1020534D1*
X3674162Y987095D1*
X3672653Y991847D1*
X3671806Y997194D1*
X3671700Y1055019D1*
Y1124527D1*
X3666583Y1129083D1*
X3660873Y1135768D1*
X3656200Y1143436D1*
X3756200D2*
X3751527Y1135768D1*
X3745817Y1129083D1*
X3740711Y1124618D1*
X3740700Y1014219D1*
X4022167Y732724D1*
X4040348Y732728D1*
X3999515Y773781D1*
X3994765Y780319D1*
X3991096Y787520D1*
X3988599Y795206D1*
X3987335Y803187D1*
X3987176Y834787D1*
X3987335Y886241D1*
X3988599Y894222D1*
X3991096Y901908D1*
X3994765Y909109D1*
X3999515Y915647D1*
X4005229Y921361D1*
X4011767Y926111D1*
X4018968Y929780D1*
X4026654Y932277D1*
X4034635Y933541D1*
X4042717D1*
X4050698Y932277D1*
X4058384Y929780D1*
X4065585Y926111D1*
X4071688Y921703D1*
X4071700Y1124568D1*
X4066583Y1129083D1*
X4060873Y1135768D1*
X4056200Y1143436D1*
X4051527Y1135768D1*
X4045817Y1129083D1*
X4039132Y1123373D1*
X4031636Y1118779D1*
X4023513Y1115415D1*
X4014965Y1113362D1*
X4006200Y1112672D1*
X3997435Y1113362D1*
X3988887Y1115415D1*
X3980764Y1118779D1*
X3973268Y1123373D1*
X3966583Y1129083D1*
X3960873Y1135768D1*
X3956200Y1143436D1*
X3951527Y1135768D1*
X3945817Y1129083D1*
X3939132Y1123373D1*
X3931636Y1118779D1*
X3923513Y1115415D1*
X3914965Y1113362D1*
X3906200Y1112672D1*
X3897435Y1113362D1*
X3888887Y1115415D1*
X3880764Y1118779D1*
X3873268Y1123373D1*
X3866583Y1129083D1*
X3860873Y1135768D1*
X3856200Y1143436D1*
X3851527Y1135768D1*
X3845817Y1129083D1*
X3839132Y1123373D1*
X3831636Y1118779D1*
X3823513Y1115415D1*
X3814965Y1113362D1*
X3806200Y1112672D1*
X3797435Y1113362D1*
X3788887Y1115415D1*
X3780764Y1118779D1*
X3773268Y1123373D1*
X3766583Y1129083D1*
X3760873Y1135768D1*
X3756200Y1143436D1*
X4156200D2*
X4151527Y1135768D1*
X4145817Y1129083D1*
X4140711Y1124618D1*
X4140700Y857476D1*
X4149499Y848692D1*
X4387502Y848700D1*
X4391368Y851819D1*
X4397589Y855632D1*
X4404331Y858424D1*
X4411426Y860128D1*
X4418700Y860700D1*
X4425974Y860128D1*
X4433069Y858424D1*
X4439811Y855632D1*
X4446032Y851819D1*
X4451580Y847080D1*
X4456319Y841532D1*
X4460132Y835311D1*
X4462924Y828569D1*
X4464628Y821474D1*
X4465200Y814200D1*
X4464628Y806926D1*
X4462924Y799831D1*
X4460132Y793089D1*
X4456319Y786868D1*
X4451580Y781320D1*
X4446032Y776581D1*
X4439811Y772768D1*
X4433069Y769976D1*
X4425974Y768272D1*
X4418700Y767700D1*
X4411426Y768272D1*
X4404331Y769976D1*
X4397589Y772768D1*
X4391368Y776581D1*
X4387569Y779703D1*
X4231564Y779700D1*
X4235864Y774499D1*
X4240087Y767609D1*
X4243179Y760142D1*
X4245066Y752284D1*
X4245700Y744228D1*
X4245066Y736172D1*
X4244379Y732717D1*
X5054379Y732622D1*
X5059726Y731775D1*
X5064875Y730102D1*
X5069698Y727644D1*
X5074078Y724462D1*
X5115042Y683649D1*
X5124405Y674286D1*
X5131200Y674728D1*
X5139965Y674038D1*
X5148513Y671985D1*
X5156636Y668621D1*
X5164132Y664027D1*
X5170817Y658317D1*
X5176527Y651632D1*
X5181200Y643964D1*
X5185873Y651632D1*
X5191583Y658317D1*
X5198268Y664027D1*
X5205764Y668621D1*
X5213887Y671985D1*
X5222435Y674038D1*
X5231200Y674728D1*
X5239965Y674038D1*
X5248513Y671985D1*
X5256636Y668621D1*
X5264132Y664027D1*
X5270817Y658317D1*
X5275282Y653211D1*
X5287072Y653200D1*
X5291583Y658317D1*
X5298268Y664027D1*
X5305764Y668621D1*
X5313887Y671985D1*
X5322435Y674038D1*
X5331200Y674728D1*
X5339965Y674038D1*
X5348513Y671985D1*
X5356636Y668621D1*
X5364132Y664027D1*
X5370817Y658317D1*
X5376527Y651632D1*
X5381200Y643964D1*
X5385873Y651632D1*
X5391583Y658317D1*
X5398268Y664027D1*
X5405764Y668621D1*
X5413887Y671985D1*
X5422435Y674038D1*
X5431200Y674728D1*
X5439436Y674100D1*
X5440481Y680083D1*
X5442736Y687023D1*
X5446048Y693524D1*
X5450337Y699427D1*
X5455497Y704587D1*
X5461400Y708876D1*
X5467901Y712188D1*
X5474841Y714443D1*
X5482048Y715585D1*
X5489344D1*
X5496551Y714443D1*
X5503491Y712188D1*
X5509992Y708876D1*
X5515895Y704587D1*
X5517435Y703164D1*
X5521861Y702040D1*
X5526863Y699968D1*
X5531479Y697139D1*
X5535595Y693623D1*
X5557434Y671634D1*
X5560621Y667245D1*
X5567587Y661304D1*
X5573804Y655087D1*
X5578971Y647974D1*
X5581279Y644136D1*
X5585873Y651632D1*
X5591583Y658317D1*
X5598268Y664027D1*
X5605764Y668621D1*
X5613887Y671985D1*
X5622435Y674038D1*
X5631200Y674728D1*
X5639965Y674038D1*
X5648513Y671985D1*
X5656636Y668621D1*
X5664132Y664027D1*
X5670817Y658317D1*
X5676527Y651632D1*
X5681200Y643964D1*
X5685873Y651632D1*
X5691583Y658317D1*
X5698268Y664027D1*
X5705764Y668621D1*
X5713887Y671985D1*
X5722435Y674038D1*
X5731200Y674728D1*
X5739965Y674038D1*
X5747240Y672345D1*
X5747228Y712515D1*
X5744109Y716368D1*
X5740296Y722589D1*
X5737504Y729331D1*
X5735800Y736426D1*
X5735228Y743700D1*
X5735708Y750195D1*
X5224687Y750359D1*
X5216706Y751623D1*
X5209020Y754120D1*
X5201819Y757789D1*
X5195281Y762539D1*
X5172850Y784746D1*
X5152538Y784728D1*
X5135647Y768067D1*
X5129109Y763317D1*
X5121908Y759648D1*
X5114222Y757151D1*
X5106241Y755887D1*
X5074641Y755728D1*
X5003631Y755887D1*
X4995650Y757151D1*
X4987964Y759648D1*
X4980763Y763317D1*
X4974225Y768067D1*
X4951769Y790299D1*
X4890085Y851983D1*
X4888915Y844345D1*
X4886660Y837405D1*
X4883348Y830904D1*
X4879059Y825001D1*
X4873899Y819841D1*
X4867996Y815552D1*
X4861495Y812240D1*
X4854555Y809985D1*
X4847348Y808843D1*
X4840052D1*
X4832845Y809985D1*
X4825905Y812240D1*
X4819404Y815552D1*
X4813501Y819841D1*
X4812569Y820703D1*
X4516993Y820806D1*
X4511646Y821653D1*
X4506497Y823326D1*
X4501674Y825784D1*
X4497294Y828966D1*
X4456330Y869779D1*
X4213020Y1113090D1*
X4206200Y1112672D1*
X4197435Y1113362D1*
X4188887Y1115415D1*
X4180764Y1118779D1*
X4173268Y1123373D1*
X4166583Y1129083D1*
X4160873Y1135768D1*
X4156200Y1143436D1*
X4262055Y539304D2*
X4260680Y530621D1*
X4257963Y522259D1*
X4253971Y514426D1*
X4249495Y508190D1*
X5738473Y508200D1*
X5747236Y516999D1*
X5747228Y565031D1*
X5739965Y563362D1*
X5731200Y562672D1*
X5722435Y563362D1*
X5713887Y565415D1*
X5705764Y568779D1*
X5698268Y573373D1*
X5691583Y579083D1*
X5685873Y585768D1*
X5681200Y593436D1*
X5676527Y585768D1*
X5670817Y579083D1*
X5664132Y573373D1*
X5656636Y568779D1*
X5648513Y565415D1*
X5639965Y563362D1*
X5631200Y562672D1*
X5622435Y563362D1*
X5613887Y565415D1*
X5605764Y568779D1*
X5598268Y573373D1*
X5591583Y579083D1*
X5585873Y585768D1*
X5581200Y593436D1*
X5576527Y585768D1*
X5570817Y579083D1*
X5564132Y573373D1*
X5556636Y568779D1*
X5548513Y565415D1*
X5539965Y563362D1*
X5531200Y562672D1*
X5522435Y563362D1*
X5513887Y565415D1*
X5505764Y568779D1*
X5498268Y573373D1*
X5491583Y579083D1*
X5485873Y585768D1*
X5481200Y593436D1*
X5476527Y585768D1*
X5470817Y579083D1*
X5464132Y573373D1*
X5456636Y568779D1*
X5448513Y565415D1*
X5439965Y563362D1*
X5431200Y562672D1*
X5422435Y563362D1*
X5413887Y565415D1*
X5405764Y568779D1*
X5398268Y573373D1*
X5391583Y579083D1*
X5385873Y585768D1*
X5381200Y593436D1*
X5376527Y585768D1*
X5370817Y579083D1*
X5364132Y573373D1*
X5356636Y568779D1*
X5348513Y565415D1*
X5339965Y563362D1*
X5331200Y562672D1*
X5322435Y563362D1*
X5313887Y565415D1*
X5305764Y568779D1*
X5298268Y573373D1*
X5291583Y579083D1*
X5287118Y584189D1*
X5275328Y584200D1*
X5270817Y579083D1*
X5264132Y573373D1*
X5256636Y568779D1*
X5248513Y565415D1*
X5239965Y563362D1*
X5231200Y562672D1*
X5222435Y563362D1*
X5213887Y565415D1*
X5205764Y568779D1*
X5198268Y573373D1*
X5191583Y579083D1*
X5185873Y585768D1*
X5181200Y593436D1*
X5176527Y585768D1*
X5170817Y579083D1*
X5164132Y573373D1*
X5156636Y568779D1*
X5148513Y565415D1*
X5139965Y563362D1*
X5131200Y562672D1*
X5122435Y563362D1*
X5113887Y565415D1*
X5105764Y568779D1*
X5098268Y573373D1*
X5091583Y579083D1*
X5085873Y585768D1*
X5081200Y593436D1*
X5076527Y585768D1*
X5070817Y579083D1*
X5064132Y573373D1*
X5056636Y568779D1*
X5048513Y565415D1*
X5039965Y563362D1*
X5031200Y562672D1*
X5022435Y563362D1*
X5013887Y565415D1*
X5005764Y568779D1*
X4998268Y573373D1*
X4991583Y579083D1*
X4985873Y585768D1*
X4981279Y593264D1*
X4977915Y601387D1*
X4975862Y609935D1*
X4975172Y618700D1*
X4975626Y625468D1*
X4966384Y634726D1*
X4163123Y634728D1*
X4168067Y630623D1*
X4199404Y599286D1*
X4206200Y599728D1*
X4214965Y599038D1*
X4223513Y596985D1*
X4231636Y593621D1*
X4239132Y589027D1*
X4245817Y583317D1*
X4251527Y576632D1*
X4256121Y569136D1*
X4259485Y561013D1*
X4261538Y552465D1*
X4262228Y543700D1*
X4262055Y539304D1*
X3956200Y568964D2*
X3960873Y576632D1*
X3966583Y583317D1*
X3973268Y589027D1*
X3975054Y590221D1*
X3973485Y595373D1*
X3972343Y602580D1*
Y609876D1*
X3973485Y617083D1*
X3975740Y624023D1*
X3979052Y630524D1*
X3982008Y634736D1*
X3940532Y634834D1*
X3935185Y635681D1*
X3930036Y637354D1*
X3925213Y639812D1*
X3920833Y642994D1*
X3879869Y683807D1*
X3840667Y723010D1*
X3840700Y587842D1*
X3845817Y583317D1*
X3851527Y576632D1*
X3856200Y568964D1*
X3860873Y576632D1*
X3866583Y583317D1*
X3873268Y589027D1*
X3880764Y593621D1*
X3888887Y596985D1*
X3897435Y599038D1*
X3906200Y599728D1*
X3914965Y599038D1*
X3923513Y596985D1*
X3931636Y593621D1*
X3939132Y589027D1*
X3945817Y583317D1*
X3951527Y576632D1*
X3956200Y568964D1*
X3756200D2*
X3760873Y576632D1*
X3766583Y583317D1*
X3771689Y587782D1*
X3771700Y707942D1*
X3762901Y716736D1*
X3719462Y716728D1*
X3732434Y703634D1*
X3735616Y699254D1*
X3738074Y694431D1*
X3739747Y689282D1*
X3740594Y683935D1*
X3740700Y626110D1*
Y587821D1*
X3745817Y583317D1*
X3751527Y576632D1*
X3756200Y568964D1*
X3656200D2*
X3660873Y576632D1*
X3666583Y583317D1*
X3671689Y587782D1*
X3671700Y666962D1*
X3662901Y675736D1*
X3614726Y675728D1*
X3615106Y671608D1*
X3632434Y654134D1*
X3635616Y649754D1*
X3638074Y644931D1*
X3639747Y639782D1*
X3640594Y634435D1*
X3640700Y587842D1*
X3645817Y583317D1*
X3651527Y576632D1*
X3656200Y568964D1*
X3556200D2*
X3560873Y576632D1*
X3566583Y583317D1*
X3571689Y587782D1*
X3571700Y617442D1*
X3566352Y622786D1*
X3561426Y623300D1*
X3554331Y625004D1*
X3547589Y627796D1*
X3541368Y631609D1*
X3535820Y636348D1*
X3531081Y641896D1*
X3527268Y648117D1*
X3524476Y654859D1*
X3522772Y661954D1*
X3522200Y669228D1*
X3522680Y675723D1*
X3299878Y675728D1*
X3296032Y672609D1*
X3289811Y668796D1*
X3283069Y666004D1*
X3275974Y664300D1*
X3268700Y663728D1*
X3261426Y664300D1*
X3254331Y666004D1*
X3247589Y668796D1*
X3241368Y672609D1*
X3235820Y677348D1*
X3231081Y682896D1*
X3227268Y689117D1*
X3224476Y695859D1*
X3222772Y702954D1*
X3222200Y710228D1*
X3222680Y716723D1*
X2999913Y716728D1*
X2992996Y711580D1*
X2986495Y708268D1*
X2979555Y706013D1*
X2972348Y704871D1*
X2965052D1*
X2957845Y706013D1*
X2950905Y708268D1*
X2944404Y711580D1*
X2938501Y715869D1*
X2933341Y721029D1*
X2929052Y726932D1*
X2925740Y733433D1*
X2923485Y740373D1*
X2922343Y747580D1*
Y754876D1*
X2923485Y762083D1*
X2923953Y763744D1*
X2893687Y763751D1*
X2898971Y760364D1*
X2905116Y755116D1*
X2910364Y748971D1*
X2914587Y742081D1*
X2917680Y734614D1*
X2919566Y726756D1*
X2920200Y718700D1*
X2919566Y710644D1*
X2917680Y702786D1*
X2914587Y695319D1*
X2910364Y688429D1*
X2905116Y682284D1*
X2898971Y677036D1*
X2892081Y672813D1*
X2884614Y669720D1*
X2876756Y667834D1*
X2868700Y667200D1*
X2862205D1*
X2862200Y660555D1*
X2927019Y595713D1*
X2935474Y591471D1*
X2942587Y586304D1*
X2948804Y580087D1*
X2953971Y572974D1*
X2956279Y569136D1*
X2960873Y576632D1*
X2966583Y583317D1*
X2973268Y589027D1*
X2980764Y593621D1*
X2988887Y596985D1*
X2997435Y599038D1*
X3006200Y599728D1*
X3014965Y599038D1*
X3023513Y596985D1*
X3031636Y593621D1*
X3039132Y589027D1*
X3045817Y583317D1*
X3051527Y576632D1*
X3056200Y568964D1*
X3060873Y576632D1*
X3066583Y583317D1*
X3073268Y589027D1*
X3080764Y593621D1*
X3088887Y596985D1*
X3097435Y599038D1*
X3106200Y599728D1*
X3114965Y599038D1*
X3123513Y596985D1*
X3131636Y593621D1*
X3139132Y589027D1*
X3145817Y583317D1*
X3151527Y576632D1*
X3156200Y568964D1*
X3160873Y576632D1*
X3166583Y583317D1*
X3173268Y589027D1*
X3180764Y593621D1*
X3188887Y596985D1*
X3197435Y599038D1*
X3206200Y599728D1*
X3214965Y599038D1*
X3223513Y596985D1*
X3231636Y593621D1*
X3239132Y589027D1*
X3245817Y583317D1*
X3251527Y576632D1*
X3256200Y568964D1*
X3260873Y576632D1*
X3266583Y583317D1*
X3273268Y589027D1*
X3280764Y593621D1*
X3288887Y596985D1*
X3297435Y599038D1*
X3306200Y599728D1*
X3314965Y599038D1*
X3323513Y596985D1*
X3331636Y593621D1*
X3339132Y589027D1*
X3345817Y583317D1*
X3351527Y576632D1*
X3356200Y568964D1*
X3360873Y576632D1*
X3366583Y583317D1*
X3373268Y589027D1*
X3380764Y593621D1*
X3388887Y596985D1*
X3397435Y599038D1*
X3406200Y599728D1*
X3414965Y599038D1*
X3423513Y596985D1*
X3431636Y593621D1*
X3439132Y589027D1*
X3445817Y583317D1*
X3451527Y576632D1*
X3456200Y568964D1*
X3460873Y576632D1*
X3466583Y583317D1*
X3473268Y589027D1*
X3480764Y593621D1*
X3488887Y596985D1*
X3497435Y599038D1*
X3506200Y599728D1*
X3514965Y599038D1*
X3523513Y596985D1*
X3531636Y593621D1*
X3539132Y589027D1*
X3545817Y583317D1*
X3551527Y576632D1*
X3556200Y568964D1*
X3412968Y488126D2*
X3406200Y487672D1*
X3397435Y488362D1*
X3388887Y490415D1*
X3380764Y493779D1*
X3373268Y498373D1*
X3366583Y504083D1*
X3360873Y510768D1*
X3356200Y518436D1*
X3351527Y510768D1*
X3345817Y504083D1*
X3339132Y498373D1*
X3331636Y493779D1*
X3323513Y490415D1*
X3314965Y488362D1*
X3306200Y487672D1*
X3297435Y488362D1*
X3288887Y490415D1*
X3280764Y493779D1*
X3273268Y498373D1*
X3266583Y504083D1*
X3260873Y510768D1*
X3256200Y518436D1*
X3251527Y510768D1*
X3245817Y504083D1*
X3239132Y498373D1*
X3231636Y493779D1*
X3223513Y490415D1*
X3214965Y488362D1*
X3206200Y487672D1*
X3197435Y488362D1*
X3188887Y490415D1*
X3180764Y493779D1*
X3173268Y498373D1*
X3166583Y504083D1*
X3160873Y510768D1*
X3156200Y518436D1*
X3151527Y510768D1*
X3145817Y504083D1*
X3139132Y498373D1*
X3131636Y493779D1*
X3123513Y490415D1*
X3114965Y488362D1*
X3106200Y487672D1*
X3097435Y488362D1*
X3088887Y490415D1*
X3080764Y493779D1*
X3073268Y498373D1*
X3066583Y504083D1*
X3060873Y510768D1*
X3056200Y518436D1*
X3051527Y510768D1*
X3045817Y504083D1*
X3039132Y498373D1*
X3031636Y493779D1*
X3023513Y490415D1*
X3014965Y488362D1*
X3006200Y487672D1*
X2997435Y488362D1*
X2988887Y490415D1*
X2980764Y493779D1*
X2973268Y498373D1*
X2966583Y504083D1*
X2960873Y510768D1*
X2956200Y518436D1*
X2951527Y510768D1*
X2945817Y504083D1*
X2939132Y498373D1*
X2931636Y493779D1*
X2923513Y490415D1*
X2914965Y488362D1*
X2906200Y487672D1*
X2897435Y488362D1*
X2888887Y490415D1*
X2880764Y493779D1*
X2873268Y498373D1*
X2866583Y504083D1*
X2860873Y510768D1*
X2856200Y518436D1*
X2851527Y510768D1*
X2845817Y504083D1*
X2839132Y498373D1*
X2831636Y493779D1*
X2823513Y490415D1*
X2814965Y488362D1*
X2806200Y487672D1*
X2797435Y488362D1*
X2788887Y490415D1*
X2780764Y493779D1*
X2773268Y498373D1*
X2766583Y504083D1*
X2760873Y510768D1*
X2756279Y518264D1*
X2752915Y526387D1*
X2750862Y534935D1*
X2750172Y543700D1*
X2750862Y552465D1*
X2752915Y561013D1*
X2756279Y569136D1*
X2760873Y576632D1*
X2766583Y583317D1*
X2773268Y589027D1*
X2780764Y593621D1*
X2782590Y594463D1*
X2771539Y605753D1*
X2766789Y612291D1*
X2763120Y619492D1*
X2760623Y627178D1*
X2759359Y635159D1*
X2759200Y667226D1*
X2624761Y667200D1*
X2624750Y662650D1*
X2603471D1*
X2608333Y658333D1*
X2614045Y651645D1*
X2618641Y644146D1*
X2622007Y636020D1*
X2624060Y627468D1*
X2624750Y618700D1*
X2624060Y609932D1*
X2622007Y601380D1*
X2618641Y593254D1*
X2614045Y585755D1*
X2608333Y579067D1*
X2601645Y573355D1*
X2593943Y568666D1*
X2629073Y568669D1*
X2632919Y571788D1*
X2639140Y575601D1*
X2645882Y578393D1*
X2652977Y580097D1*
X2660251Y580669D1*
X2667525Y580097D1*
X2674620Y578393D1*
X2681362Y575601D1*
X2687583Y571788D1*
X2693131Y567049D1*
X2697870Y561501D1*
X2701683Y555280D1*
X2704475Y548538D1*
X2706179Y541443D1*
X2706751Y534169D1*
X2706179Y526895D1*
X2704475Y519800D1*
X2701683Y513058D1*
X2697870Y506837D1*
X2693131Y501289D1*
X2687583Y496550D1*
X2681362Y492737D1*
X2674620Y489945D1*
X2667525Y488241D1*
X2660251Y487669D1*
X2652977Y488241D1*
X2645882Y489945D1*
X2639140Y492737D1*
X2632919Y496550D1*
X2629120Y499672D1*
X2350524Y499775D1*
X2345177Y500622D1*
X2340028Y502295D1*
X2335205Y504753D1*
X2330825Y507935D1*
X2289861Y548748D1*
X2275525Y563084D1*
X2268700Y562650D1*
X2259932Y563340D1*
X2251380Y565393D1*
X2243254Y568759D1*
X2235755Y573355D1*
X2229067Y579067D1*
X2223355Y585755D1*
X2218759Y593254D1*
X2215393Y601380D1*
X2213340Y609932D1*
X2212650Y618700D1*
X2213340Y627468D1*
X2215393Y636020D1*
X2218759Y644146D1*
X2223355Y651645D1*
X2229067Y658333D1*
X2235755Y664045D1*
X2243363Y668691D1*
X2235755Y673355D1*
X2229067Y679067D1*
X2223355Y685755D1*
X2218759Y693254D1*
X2215393Y701380D1*
X2213340Y709932D1*
X2212853Y714046D1*
X2195157Y696366D1*
X2195041Y689659D1*
X2193777Y681678D1*
X2191280Y673992D1*
X2187611Y666791D1*
X2182861Y660253D1*
X2177147Y654539D1*
X2170609Y649789D1*
X2163408Y646120D1*
X2155722Y643623D1*
X2147741Y642359D1*
X2139659D1*
X2131678Y643623D1*
X2123992Y646120D1*
X2120195Y647883D1*
X2120204Y516862D1*
X2123323Y513032D1*
X2127136Y506811D1*
X2129928Y500069D1*
X2131632Y492974D1*
X2132204Y485700D1*
X2131632Y478426D1*
X2129928Y471331D1*
X2127136Y464589D1*
X2123323Y458368D1*
X2118584Y452820D1*
X2113036Y448081D1*
X2106815Y444268D1*
X2100073Y441476D1*
X2092978Y439772D1*
X2085704Y439200D1*
X2078430Y439772D1*
X2071335Y441476D1*
X2064593Y444268D1*
X2058372Y448081D1*
X2052824Y452820D1*
X2048085Y458368D1*
X2044272Y464589D1*
X2041480Y471331D1*
X2039776Y478426D1*
X2039204Y485700D1*
X2039776Y492974D1*
X2041480Y500069D1*
X2044272Y506811D1*
X2048085Y513032D1*
X2051207Y516831D1*
X2051204Y573078D1*
X2044136Y568779D1*
X2036013Y565415D1*
X2027465Y563362D1*
X2018700Y562672D1*
X2009935Y563362D1*
X2001387Y565415D1*
X1993264Y568779D1*
X1985768Y573373D1*
X1979083Y579083D1*
X1973373Y585768D1*
X1968700Y593436D1*
X1964027Y585768D1*
X1958317Y579083D1*
X1951632Y573373D1*
X1944136Y568779D1*
X1936013Y565415D1*
X1927465Y563362D1*
X1918700Y562672D1*
X1909935Y563362D1*
X1901387Y565415D1*
X1893264Y568779D1*
X1885768Y573373D1*
X1879083Y579083D1*
X1873373Y585768D1*
X1868700Y593436D1*
X1864027Y585768D1*
X1858317Y579083D1*
X1851632Y573373D1*
X1844136Y568779D1*
X1836013Y565415D1*
X1827465Y563362D1*
X1818700Y562672D1*
X1809935Y563362D1*
X1801387Y565415D1*
X1793264Y568779D1*
X1785768Y573373D1*
X1779083Y579083D1*
X1773373Y585768D1*
X1768700Y593436D1*
X1764027Y585768D1*
X1758317Y579083D1*
X1751632Y573373D1*
X1744136Y568779D1*
X1736013Y565415D1*
X1727465Y563362D1*
X1718700Y562672D1*
X1709935Y563362D1*
X1701387Y565415D1*
X1693264Y568779D1*
X1685768Y573373D1*
X1679083Y579083D1*
X1673373Y585768D1*
X1668700Y593436D1*
X1664027Y585768D1*
X1658317Y579083D1*
X1651632Y573373D1*
X1644136Y568779D1*
X1636013Y565415D1*
X1627465Y563362D1*
X1618700Y562672D1*
X1609935Y563362D1*
X1601387Y565415D1*
X1593264Y568779D1*
X1585768Y573373D1*
X1579083Y579083D1*
X1574618Y584189D1*
X1562828Y584200D1*
X1558317Y579083D1*
X1551632Y573373D1*
X1544136Y568779D1*
X1536013Y565415D1*
X1527465Y563362D1*
X1518700Y562672D1*
X1509935Y563362D1*
X1501387Y565415D1*
X1493264Y568779D1*
X1485768Y573373D1*
X1479083Y579083D1*
X1473373Y585768D1*
X1468700Y593436D1*
X1464027Y585768D1*
X1458317Y579083D1*
X1451632Y573373D1*
X1444136Y568779D1*
X1436013Y565415D1*
X1427465Y563362D1*
X1418700Y562672D1*
X1409935Y563362D1*
X1401387Y565415D1*
X1393264Y568779D1*
X1385768Y573373D1*
X1379083Y579083D1*
X1373373Y585768D1*
X1368700Y593436D1*
X1364027Y585768D1*
X1358317Y579083D1*
X1351632Y573373D1*
X1344136Y568779D1*
X1336013Y565415D1*
X1327465Y563362D1*
X1318700Y562672D1*
X1309935Y563362D1*
X1301387Y565415D1*
X1293264Y568779D1*
X1285768Y573373D1*
X1279083Y579083D1*
X1273373Y585768D1*
X1268779Y593264D1*
X1265415Y601387D1*
X1263362Y609935D1*
X1262672Y618700D1*
X1263362Y627465D1*
X1265415Y636013D1*
X1268779Y644136D1*
X1273373Y651632D1*
X1279083Y658317D1*
X1284189Y662782D1*
X1284306Y1013407D1*
X1285153Y1018754D1*
X1286826Y1023903D1*
X1289284Y1028726D1*
X1292466Y1033106D1*
X1321879Y1062669D1*
X1278737Y1062672D1*
X1278622Y695521D1*
X1277775Y690174D1*
X1276102Y685025D1*
X1273644Y680202D1*
X1270462Y675822D1*
X1241969Y647178D1*
X1245463Y640141D1*
X1248180Y631779D1*
X1249555Y623096D1*
Y614304D1*
X1248180Y605621D1*
X1245463Y597259D1*
X1241471Y589426D1*
X1236304Y582313D1*
X1230087Y576096D1*
X1222974Y570929D1*
X1215141Y566937D1*
X1206779Y564220D1*
X1198096Y562845D1*
X1189304D1*
X1180621Y564220D1*
X1172259Y566937D1*
X1164426Y570929D1*
X1157313Y576096D1*
X1151096Y582313D1*
X1145929Y589426D1*
X1143621Y593264D1*
X1139027Y585768D1*
X1133317Y579083D1*
X1126632Y573373D1*
X1119136Y568779D1*
X1111013Y565415D1*
X1102465Y563362D1*
X1093700Y562672D1*
X1084935Y563362D1*
X1076387Y565415D1*
X1068264Y568779D1*
X1060768Y573373D1*
X1054083Y579083D1*
X1048373Y585768D1*
X1043700Y593436D1*
X1039027Y585768D1*
X1033317Y579083D1*
X1026632Y573373D1*
X1019136Y568779D1*
X1011013Y565415D1*
X1002465Y563362D1*
X993700Y562672D1*
X984935Y563362D1*
X976387Y565415D1*
X968264Y568779D1*
X960768Y573373D1*
X954083Y579083D1*
X948373Y585768D1*
X943700Y593436D1*
X939027Y585768D1*
X933317Y579083D1*
X926632Y573373D1*
X919136Y568779D1*
X911013Y565415D1*
X902465Y563362D1*
X893700Y562672D1*
X884935Y563362D1*
X876387Y565415D1*
X868264Y568779D1*
X860768Y573373D1*
X854083Y579083D1*
X848373Y585768D1*
X843700Y593436D1*
X839027Y585768D1*
X833317Y579083D1*
X826632Y573373D1*
X819136Y568779D1*
X811013Y565415D1*
X802465Y563362D1*
X793700Y562672D1*
X784935Y563362D1*
X776387Y565415D1*
X768264Y568779D1*
X760768Y573373D1*
X754083Y579083D1*
X749618Y584189D1*
X737828Y584200D1*
X733317Y579083D1*
X726632Y573373D1*
X719136Y568779D1*
X711013Y565415D1*
X702465Y563362D1*
X693700Y562672D1*
X684935Y563362D1*
X676387Y565415D1*
X668264Y568779D1*
X660768Y573373D1*
X654083Y579083D1*
X648373Y585768D1*
X643700Y593436D1*
X639027Y585768D1*
X633317Y579083D1*
X626632Y573373D1*
X619136Y568779D1*
X611013Y565415D1*
X602465Y563362D1*
X593700Y562672D1*
X584935Y563362D1*
X576387Y565415D1*
X568264Y568779D1*
X560768Y573373D1*
X554083Y579083D1*
X548373Y585768D1*
X543700Y593436D1*
X539027Y585768D1*
X534216Y580054D1*
X543547Y575042D1*
X549775Y570880D1*
X555658Y566243D1*
X561158Y561158D1*
X566243Y555658D1*
X570880Y549775D1*
X575042Y543547D1*
X578702Y537011D1*
X581838Y530208D1*
X584431Y523180D1*
X586464Y515971D1*
X587926Y508624D1*
X588806Y501185D1*
X589100Y493700D1*
X588806Y486215D1*
X587926Y478776D1*
X586464Y471429D1*
X584431Y464220D1*
X581838Y457192D1*
X578702Y450389D1*
X575042Y443853D1*
X570880Y437625D1*
X566682Y432200D1*
X3468887D1*
X3413031Y488079D1*
X549728Y1166510D2*
Y1153448D1*
X554083Y1158317D1*
X560768Y1164027D1*
X568264Y1168621D1*
X576387Y1171985D1*
X584935Y1174038D1*
X593700Y1174728D1*
X602465Y1174038D1*
X611013Y1171985D1*
X619136Y1168621D1*
X626632Y1164027D1*
X633317Y1158317D1*
X639027Y1151632D1*
X643700Y1143964D1*
X648373Y1151632D1*
X654083Y1158317D1*
X660768Y1164027D1*
X668264Y1168621D1*
X676387Y1171985D1*
X684935Y1174038D1*
X693700Y1174728D1*
X702465Y1174038D1*
X711013Y1171985D1*
X719136Y1168621D1*
X726632Y1164027D1*
X733317Y1158317D1*
X739027Y1151632D1*
X743700Y1143964D1*
X748373Y1151632D1*
X754083Y1158317D1*
X760768Y1164027D1*
X768264Y1168621D1*
X776387Y1171985D1*
X784935Y1174038D1*
X793700Y1174728D1*
X802465Y1174038D1*
X811013Y1171985D1*
X819136Y1168621D1*
X826632Y1164027D1*
X833317Y1158317D1*
X839027Y1151632D1*
X843700Y1143964D1*
X848373Y1151632D1*
X854083Y1158317D1*
X860768Y1164027D1*
X868264Y1168621D1*
X876387Y1171985D1*
X884935Y1174038D1*
X893700Y1174728D1*
X902465Y1174038D1*
X911013Y1171985D1*
X919136Y1168621D1*
X926632Y1164027D1*
X933317Y1158317D1*
X939027Y1151632D1*
X943700Y1143964D1*
X948373Y1151632D1*
X954083Y1158317D1*
X960768Y1164027D1*
X968264Y1168621D1*
X976387Y1171985D1*
X984935Y1174038D1*
X993700Y1174728D1*
X1002465Y1174038D1*
X1011013Y1171985D1*
X1019136Y1168621D1*
X1026632Y1164027D1*
X1033317Y1158317D1*
X1037676Y1153346D1*
X1037672Y1174728D1*
X1149728D1*
Y1153448D1*
X1154083Y1158317D1*
X1160768Y1164027D1*
X1168264Y1168621D1*
X1176387Y1171985D1*
X1184935Y1174038D1*
X1193700Y1174728D1*
X1202465Y1174038D1*
X1209740Y1172345D1*
X1209834Y1255935D1*
X1210681Y1261282D1*
X1212354Y1266431D1*
X1214812Y1271254D1*
X1217994Y1275634D1*
X1247407Y1305197D1*
X566657Y1305200D1*
X570880Y1299775D1*
X575042Y1293547D1*
X578702Y1287011D1*
X581838Y1280208D1*
X584431Y1273180D1*
X586464Y1265971D1*
X587926Y1258624D1*
X588806Y1251185D1*
X589100Y1243700D1*
X588806Y1236215D1*
X587926Y1228776D1*
X586464Y1221429D1*
X584431Y1214220D1*
X581838Y1207192D1*
X578702Y1200389D1*
X575042Y1193853D1*
X570880Y1187625D1*
X566243Y1181742D1*
X561158Y1176242D1*
X555658Y1171157D1*
X549751Y1166503D1*
X476919Y1062672D2*
X437672D1*
X437625Y1166520D1*
X432200Y1170718D1*
Y566608D1*
X437625Y570880D1*
X443853Y575042D1*
X453179Y579989D1*
X448373Y585768D1*
X443779Y593264D1*
X440415Y601387D1*
X438362Y609935D1*
X437672Y618700D1*
X438362Y627465D1*
X440415Y636013D1*
X443779Y644136D1*
X448373Y651632D1*
X454083Y658317D1*
X460768Y664027D1*
X468264Y668621D1*
X476387Y671985D1*
X484935Y674038D1*
X493700Y674728D1*
X500468Y674274D1*
X521822Y695462D1*
X526202Y698644D1*
X531025Y701102D1*
X536174Y702775D1*
X541521Y703622D1*
X599346Y703728D1*
X1200944D1*
X1209736Y712527D1*
X1209728Y1065000D1*
X1202465Y1063362D1*
X1193700Y1062672D1*
X1184935Y1063362D1*
X1176387Y1065415D1*
X1168264Y1068779D1*
X1160768Y1073373D1*
X1154083Y1079083D1*
X1149724Y1084054D1*
X1149728Y1062672D1*
X1145170D1*
X1145041Y1018131D1*
X1143777Y1010150D1*
X1141280Y1002464D1*
X1137611Y995263D1*
X1132861Y988725D1*
X1127147Y983011D1*
X1120609Y978261D1*
X1113408Y974592D1*
X1105722Y972095D1*
X1097741Y970831D1*
X1066141Y970672D1*
X1019671D1*
X1019696Y794704D1*
X1019062Y786648D1*
X1017175Y778790D1*
X1014083Y771323D1*
X1009860Y764433D1*
X1004612Y758288D1*
X998467Y753040D1*
X991577Y748817D1*
X984110Y745725D1*
X976252Y743838D1*
X968196Y743204D1*
X960140Y743838D1*
X952282Y745725D1*
X944815Y748817D1*
X937925Y753040D1*
X931780Y758288D1*
X926532Y764433D1*
X922309Y771323D1*
X919217Y778790D1*
X917330Y786648D1*
X916696Y794704D1*
Y970644D1*
X590228Y970672D1*
X582172Y971306D1*
X574314Y973192D1*
X566847Y976285D1*
X559957Y980508D1*
X553812Y985756D1*
X476903Y1062664D1*
X1278713Y1174728D2*
X1301894D1*
X1352781Y1225389D1*
X1359319Y1230139D1*
X1366520Y1233808D1*
X1374206Y1236305D1*
X1382187Y1237569D1*
X1413787Y1237728D1*
X1855213Y1237569D1*
X1863194Y1236305D1*
X1870895Y1233801D1*
X1874789Y1233609D1*
X1879539Y1240147D1*
X1885266Y1245871D1*
X1880074Y1247728D1*
X1287518D1*
X1278720Y1238929D1*
X1278728Y1174749D1*
X1968700Y643964D2*
X1973373Y651632D1*
X1979083Y658317D1*
X1985768Y664027D1*
X1993264Y668621D1*
X2001387Y671985D1*
X2009935Y674038D1*
X2018700Y674728D1*
X2027465Y674038D1*
X2036013Y671985D1*
X2044136Y668621D1*
X2051218Y664304D1*
X2051204Y714821D1*
X2048085Y718651D1*
X2044272Y724872D1*
X2041480Y731614D1*
X2039776Y738709D1*
X2039204Y745983D1*
X2039776Y753257D1*
X2041480Y760352D1*
X2042729Y763738D1*
X1825702Y763751D1*
X1831995Y761660D1*
X1838496Y758348D1*
X1844399Y754059D1*
X1849559Y748899D1*
X1853848Y742996D1*
X1857160Y736495D1*
X1859415Y729555D1*
X1860557Y722348D1*
Y715052D1*
X1859415Y707845D1*
X1857160Y700905D1*
X1853848Y694404D1*
X1849559Y688501D1*
X1844399Y683341D1*
X1838496Y679052D1*
X1831995Y675740D1*
X1827465Y674038D1*
X1836013Y671985D1*
X1844136Y668621D1*
X1851632Y664027D1*
X1858317Y658317D1*
X1864027Y651632D1*
X1868700Y643964D1*
X1873373Y651632D1*
X1879083Y658317D1*
X1885768Y664027D1*
X1893264Y668621D1*
X1901387Y671985D1*
X1909935Y674038D1*
X1918700Y674728D1*
X1927465Y674038D1*
X1936013Y671985D1*
X1944136Y668621D1*
X1951632Y664027D1*
X1958317Y658317D1*
X1964027Y651632D1*
X1968700Y643964D1*
X1768700D2*
X1773373Y651632D1*
X1779083Y658317D1*
X1785768Y664027D1*
X1793264Y668621D1*
X1801387Y671985D1*
X1805240Y673072D1*
X1799831Y674476D1*
X1793089Y677268D1*
X1788943Y679694D1*
X1706512Y679700D1*
X1714304Y674555D1*
X1723096D1*
X1731779Y673180D1*
X1740141Y670463D1*
X1747974Y666471D1*
X1755087Y661304D1*
X1761304Y655087D1*
X1766471Y647974D1*
X1768700Y643964D1*
X1368700D2*
X1373373Y651632D1*
X1379083Y658317D1*
X1384189Y662782D1*
X1384306Y771958D1*
X1385153Y777305D1*
X1386826Y782454D1*
X1389284Y787277D1*
X1392473Y791665D1*
X1388348Y792751D1*
X1382116Y792910D1*
X1374135Y794174D1*
X1366449Y796671D1*
X1359248Y800340D1*
X1355874Y802596D1*
X1353200Y799414D1*
Y662875D1*
X1358317Y658317D1*
X1364027Y651632D1*
X1368700Y643964D1*
X5279702Y1090730D2*
X5276527Y1085768D1*
X5270817Y1079083D1*
X5264132Y1073373D1*
X5256636Y1068779D1*
X5248513Y1065415D1*
X5239965Y1063362D1*
X5231200Y1062672D1*
X5222435Y1063362D1*
X5213887Y1065415D1*
X5205764Y1068779D1*
X5198268Y1073373D1*
X5191583Y1079083D1*
X5185873Y1085768D1*
X5182698Y1090730D1*
X5182700Y887713D1*
X5198241Y887569D1*
X5206222Y886305D1*
X5213908Y883808D1*
X5221109Y880139D1*
X5227647Y875389D1*
X5250078Y853182D1*
X5332900Y853200D1*
X5292039Y894253D1*
X5287289Y900791D1*
X5283620Y907992D1*
X5281123Y915678D1*
X5279859Y923659D1*
X5279700Y955259D1*
Y1090650D1*
X5687228Y1083976D2*
Y1062672D1*
X5582697D1*
X5582700Y1042231D1*
X5722200Y1042200D1*
X5730256Y1041566D1*
X5738114Y1039679D1*
X5745581Y1036587D1*
X5752471Y1032364D1*
X5755700Y1030054D1*
Y1068343D1*
X5748513Y1065415D1*
X5739965Y1063362D1*
X5731200Y1062672D1*
X5722435Y1063362D1*
X5713887Y1065415D1*
X5705764Y1068779D1*
X5698268Y1073373D1*
X5691583Y1079083D1*
X5687224Y1084054D1*
X2533927Y662650D2*
X2512650D1*
Y683929D1*
X2508333Y679067D1*
X2501645Y673355D1*
X2494037Y668709D1*
X2501645Y664045D1*
X2508333Y658333D1*
X2514045Y651645D1*
X2518691Y644037D1*
X2523355Y651645D1*
X2529067Y658333D1*
X2533986Y662651D1*
X2443363Y668709D2*
X2435755Y673355D1*
X2429067Y679067D1*
X2423355Y685755D1*
X2418709Y693363D1*
X2414045Y685755D1*
X2408333Y679067D1*
X2401645Y673355D1*
X2394037Y668709D1*
X2401645Y664045D1*
X2408333Y658333D1*
X2414045Y651645D1*
X2418691Y644037D1*
X2423355Y651645D1*
X2429067Y658333D1*
X2435755Y664045D1*
X2443363Y668691D1*
X2343363Y668709D2*
X2335755Y673355D1*
X2329067Y679067D1*
X2323355Y685755D1*
X2318709Y693363D1*
X2314045Y685755D1*
X2308333Y679067D1*
X2301645Y673355D1*
X2294037Y668709D1*
X2301645Y664045D1*
X2308333Y658333D1*
X2314045Y651645D1*
X2318691Y644037D1*
X2323355Y651645D1*
X2329067Y658333D1*
X2335755Y664045D1*
X2343363Y668691D1*
X2543457Y568666D2*
X2535755Y573355D1*
X2529067Y579067D1*
X2523355Y585755D1*
X2518709Y593363D1*
X2514045Y585755D1*
X2508333Y579067D1*
X2501645Y573355D1*
X2493943Y568666D1*
X2543453Y568669D1*
X2443457Y568666D2*
X2435755Y573355D1*
X2429067Y579067D1*
X2423355Y585755D1*
X2418709Y593363D1*
X2414045Y585755D1*
X2408333Y579067D1*
X2401645Y573355D1*
X2393943Y568666D1*
X2443408Y568669D1*
X2195041Y989659D2*
X2193777Y981678D1*
X2191280Y973992D1*
X2189517Y970195D1*
X2296653Y970200D1*
X2297856Y970683D1*
X2332347Y1005179D1*
X2193892Y1005200D1*
X2195041Y997741D1*
Y989659D1*
X2097883Y970195D2*
X2094721Y977786D1*
X2092834Y985644D1*
X2092200Y993700D1*
X2092834Y1001756D1*
X2093521Y1005211D1*
X1362025Y1005200D1*
X1353192Y996401D1*
X1353200Y975856D1*
X1360682Y978277D1*
X1368663Y979541D1*
X1376745D1*
X1384726Y978277D1*
X1392412Y975780D1*
X1399613Y972111D1*
X1406151Y967361D1*
X1411865Y961647D1*
X1416615Y955109D1*
X1420284Y947908D1*
X1422781Y940222D1*
X1424045Y932241D1*
X1424204Y900641D1*
Y895725D1*
X1936082Y895751D1*
X1933221Y902786D1*
X1931334Y910644D1*
X1930700Y918700D1*
X1931334Y926756D1*
X1933221Y934614D1*
X1936313Y942081D1*
X1940536Y948971D1*
X1945784Y955116D1*
X1951929Y960364D1*
X1958819Y964587D1*
X1966286Y967679D1*
X1974144Y969566D1*
X1982200Y970200D1*
X2097855D1*
X2132158Y743873D2*
X2139659Y745041D1*
X2146304Y745098D1*
X2164953Y763743D1*
X2128708Y763751D1*
X2130919Y756838D1*
X2132061Y749631D1*
X2132122Y743888D1*
X2574555Y914304D2*
X2573180Y905621D1*
X2570463Y897259D1*
X2569765Y895745D1*
X2763753Y895751D1*
X2757870Y898313D1*
X2750980Y902536D1*
X2744835Y907784D1*
X2717913Y934706D1*
X2572397Y934728D1*
X2574038Y927465D1*
X2574728Y918700D1*
X2574555Y914304D1*
X2467635Y895745D2*
X2465415Y901387D1*
X2463362Y909935D1*
X2462672Y918700D1*
X2463362Y927465D1*
X2465055Y934740D1*
X2407545Y934728D1*
X2370704Y897871D1*
X2369765Y895745D1*
X2467599Y895751D1*
X1788943Y757706D2*
X1793089Y760132D1*
X1799831Y762924D1*
X1802755Y763749D1*
X1688194Y763751D1*
X1694499Y761660D1*
X1701000Y758348D1*
X1701961Y757706D1*
X1788842Y757700D1*
X1632702Y703729D2*
X1630776Y711426D1*
X1630204Y718700D1*
X1630776Y725974D1*
X1632480Y733069D1*
X1635272Y739811D1*
X1639085Y746032D1*
X1643824Y751580D1*
X1649372Y756319D1*
X1655593Y760132D1*
X1662335Y762924D1*
X1665259Y763749D1*
X1461980Y763751D1*
X1453192Y754952D1*
X1453372Y710660D1*
X1460114Y713452D1*
X1467209Y715156D1*
X1474483Y715728D1*
X1481757Y715156D1*
X1488852Y713452D1*
X1495594Y710660D1*
X1501815Y706847D1*
X1505614Y703725D1*
X1632696Y703728D1*
X3471692Y966360D2*
X3338072Y832740D1*
X3462920Y832751D1*
X3471708Y841550D1*
X3471700Y966374D1*
X5581864Y853200D2*
X5722889D1*
X5755715Y886047D1*
X5755700Y918490D1*
X5748241Y917359D1*
X5740159D1*
X5732178Y918623D1*
X5724492Y921120D1*
X5717291Y924789D1*
X5710753Y929539D1*
X5700857Y939211D1*
X5572455Y939200D1*
X5575611Y934609D1*
X5579280Y927408D1*
X5581777Y919722D1*
X5583041Y911741D1*
X5583200Y880141D1*
X5583041Y860659D1*
X5581879Y853189D1*
X2133870Y1206175D2*
X2175433Y1247738D1*
X2097352Y1247728D1*
X2102644Y1243116D1*
X2125389Y1220147D1*
X2130139Y1213609D1*
X2133813Y1206393D1*
X5415551Y916200D2*
X5432847D1*
X5392039Y957253D1*
X5387289Y963791D1*
X5383615Y971007D1*
X5382700Y971718D1*
Y949004D1*
X5415547Y916185D1*
D17*
X2806200Y1168700D3*
X2906200D3*
X3006200D3*
X3106200D3*
X3206200D3*
X3306200D3*
X3406200D3*
X3506200D3*
X3606200D3*
X3706200D3*
X3806200D3*
X3906200D3*
X4006200D3*
X4106200D3*
X4206200D3*
Y543700D3*
X4106200D3*
X4006200D3*
X3906200D3*
X3806200D3*
X3706200D3*
X3606200D3*
X3506200D3*
X3406200D3*
X3306200D3*
X3206200D3*
X3106200D3*
X3006200D3*
X2906200D3*
X2806200D3*
D18*
X493700Y1118700D3*
D17*
X593700D3*
X693700D3*
X793700D3*
X893700D3*
X993700D3*
D18*
X1093700D3*
D17*
X1193700D3*
Y618700D3*
X1093700D3*
X993700D3*
X893700D3*
X793700D3*
X693700D3*
X593700D3*
X493700D3*
D18*
X1318700Y1118700D3*
D17*
X1418700D3*
X1518700D3*
X1618700D3*
X1718700D3*
X1818700D3*
D18*
X1918700D3*
D17*
X2018700D3*
Y618700D3*
X1918700D3*
X1818700D3*
X1718700D3*
X1618700D3*
X1518700D3*
X1418700D3*
X1318700D3*
D18*
X5031200Y1118700D3*
D17*
X5131200D3*
X5231200D3*
X5331200D3*
X5431200D3*
X5531200D3*
D18*
X5631200D3*
D17*
X5731200D3*
Y618700D3*
X5631200D3*
X5531200D3*
X5431200D3*
X5331200D3*
X5231200D3*
X5131200D3*
X5031200D3*
D19*
X2568700Y718700D3*
D20*
X2468700D3*
X2368700D3*
X2268700D3*
X2568700Y618700D3*
X2468700D3*
X2368700D3*
X2268700D3*
D13*
X2143700Y993700D3*
D24*
Y693700D3*
D17*
X2518700Y918700D3*
X2318700D3*
M02*
