G04 DipTrace 3.3.1.3*
G04 BottomSilk.gbr*
%MOIN*%
G04 #@! TF.FileFunction,Legend,Bot*
G04 #@! TF.Part,Single*
%ADD10C,0.009843*%
%ADD52C,0.00772*%
%ADD53C,0.012351*%
%ADD54C,0.006176*%
%FSLAX26Y26*%
G04*
G70*
G90*
G75*
G01*
G04 BotSilk*
%LPD*%
X2756200Y1218700D2*
D10*
X4256135D1*
Y518681D1*
X2756200D1*
Y1218700D1*
G36*
X3956210Y993674D2*
X4306200D1*
Y718697D1*
X3956210D1*
Y993674D1*
G37*
X443700Y1168700D2*
D10*
X1243700D1*
Y568700D1*
X443700D1*
Y1168700D1*
X468660Y868700D2*
X468782Y872186D1*
X469147Y875656D1*
X469753Y879091D1*
X470598Y882476D1*
X471678Y885794D1*
X472986Y889029D1*
X474517Y892164D1*
X476264Y895185D1*
X478217Y898078D1*
X480367Y900827D1*
X482704Y903419D1*
X485217Y905842D1*
X487892Y908085D1*
X490718Y910135D1*
X493680Y911984D1*
X496764Y913622D1*
X499955Y915041D1*
X503237Y916234D1*
X506594Y917195D1*
X510011Y917921D1*
X513469Y918406D1*
X516954Y918650D1*
X520446D1*
X523931Y918406D1*
X527389Y917921D1*
X530806Y917195D1*
X534163Y916234D1*
X537445Y915041D1*
X540636Y913622D1*
X543720Y911984D1*
X546682Y910135D1*
X549508Y908085D1*
X552183Y905842D1*
X554696Y903419D1*
X557033Y900827D1*
X559183Y898078D1*
X561136Y895185D1*
X562883Y892164D1*
X564414Y889029D1*
X565722Y885794D1*
X566802Y882476D1*
X567647Y879091D1*
X568253Y875656D1*
X568618Y872186D1*
X568740Y868700D1*
X568618Y865214D1*
X568253Y861744D1*
X567647Y858309D1*
X566802Y854924D1*
X565722Y851606D1*
X564414Y848371D1*
X562883Y845236D1*
X561136Y842215D1*
X559183Y839322D1*
X557033Y836573D1*
X554696Y833981D1*
X552183Y831558D1*
X549508Y829315D1*
X546682Y827265D1*
X543720Y825416D1*
X540636Y823778D1*
X537445Y822359D1*
X534163Y821166D1*
X530806Y820205D1*
X527389Y819479D1*
X523931Y818994D1*
X520446Y818750D1*
X516954D1*
X513469Y818994D1*
X510011Y819479D1*
X506594Y820205D1*
X503237Y821166D1*
X499955Y822359D1*
X496764Y823778D1*
X493680Y825416D1*
X490718Y827265D1*
X487892Y829315D1*
X485217Y831558D1*
X482704Y833981D1*
X480367Y836573D1*
X478217Y839322D1*
X476264Y842215D1*
X474517Y845236D1*
X472986Y848371D1*
X471678Y851606D1*
X470598Y854924D1*
X469753Y858309D1*
X469147Y861744D1*
X468782Y865214D1*
X468660Y868700D1*
X568740D1*
X518740Y918680D2*
Y818720D1*
G36*
X806180Y843680D2*
X981220D1*
Y668720D1*
X806180D1*
Y843680D1*
G37*
X1268700Y1168700D2*
D10*
X2068700D1*
Y568700D1*
X1268700D1*
Y1168700D1*
X1293660Y868700D2*
X1293782Y872186D1*
X1294147Y875656D1*
X1294753Y879091D1*
X1295598Y882476D1*
X1296678Y885794D1*
X1297986Y889029D1*
X1299517Y892164D1*
X1301264Y895185D1*
X1303217Y898078D1*
X1305367Y900827D1*
X1307704Y903419D1*
X1310217Y905842D1*
X1312892Y908085D1*
X1315718Y910135D1*
X1318680Y911984D1*
X1321764Y913622D1*
X1324955Y915041D1*
X1328237Y916234D1*
X1331594Y917195D1*
X1335011Y917921D1*
X1338469Y918406D1*
X1341954Y918650D1*
X1345446D1*
X1348931Y918406D1*
X1352389Y917921D1*
X1355806Y917195D1*
X1359163Y916234D1*
X1362445Y915041D1*
X1365636Y913622D1*
X1368720Y911984D1*
X1371682Y910135D1*
X1374508Y908085D1*
X1377183Y905842D1*
X1379696Y903419D1*
X1382033Y900827D1*
X1384183Y898078D1*
X1386136Y895185D1*
X1387883Y892164D1*
X1389414Y889029D1*
X1390722Y885794D1*
X1391802Y882476D1*
X1392647Y879091D1*
X1393253Y875656D1*
X1393618Y872186D1*
X1393740Y868700D1*
X1393618Y865214D1*
X1393253Y861744D1*
X1392647Y858309D1*
X1391802Y854924D1*
X1390722Y851606D1*
X1389414Y848371D1*
X1387883Y845236D1*
X1386136Y842215D1*
X1384183Y839322D1*
X1382033Y836573D1*
X1379696Y833981D1*
X1377183Y831558D1*
X1374508Y829315D1*
X1371682Y827265D1*
X1368720Y825416D1*
X1365636Y823778D1*
X1362445Y822359D1*
X1359163Y821166D1*
X1355806Y820205D1*
X1352389Y819479D1*
X1348931Y818994D1*
X1345446Y818750D1*
X1341954D1*
X1338469Y818994D1*
X1335011Y819479D1*
X1331594Y820205D1*
X1328237Y821166D1*
X1324955Y822359D1*
X1321764Y823778D1*
X1318680Y825416D1*
X1315718Y827265D1*
X1312892Y829315D1*
X1310217Y831558D1*
X1307704Y833981D1*
X1305367Y836573D1*
X1303217Y839322D1*
X1301264Y842215D1*
X1299517Y845236D1*
X1297986Y848371D1*
X1296678Y851606D1*
X1295598Y854924D1*
X1294753Y858309D1*
X1294147Y861744D1*
X1293782Y865214D1*
X1293660Y868700D1*
X1393740D1*
X1343740Y918680D2*
Y818720D1*
G36*
X1631180Y843680D2*
X1806220D1*
Y668720D1*
X1631180D1*
Y843680D1*
G37*
X4981200Y1168700D2*
D10*
X5781200D1*
Y568700D1*
X4981200D1*
Y1168700D1*
X5006160Y868700D2*
X5006282Y872186D1*
X5006647Y875656D1*
X5007253Y879091D1*
X5008098Y882476D1*
X5009178Y885794D1*
X5010486Y889029D1*
X5012017Y892164D1*
X5013764Y895185D1*
X5015717Y898078D1*
X5017867Y900827D1*
X5020204Y903419D1*
X5022717Y905842D1*
X5025392Y908085D1*
X5028218Y910135D1*
X5031180Y911984D1*
X5034264Y913622D1*
X5037455Y915041D1*
X5040737Y916234D1*
X5044094Y917195D1*
X5047511Y917921D1*
X5050969Y918406D1*
X5054454Y918650D1*
X5057946D1*
X5061431Y918406D1*
X5064889Y917921D1*
X5068306Y917195D1*
X5071663Y916234D1*
X5074945Y915041D1*
X5078136Y913622D1*
X5081220Y911984D1*
X5084182Y910135D1*
X5087008Y908085D1*
X5089683Y905842D1*
X5092196Y903419D1*
X5094533Y900827D1*
X5096683Y898078D1*
X5098636Y895185D1*
X5100383Y892164D1*
X5101914Y889029D1*
X5103222Y885794D1*
X5104302Y882476D1*
X5105147Y879091D1*
X5105753Y875656D1*
X5106118Y872186D1*
X5106240Y868700D1*
X5106118Y865214D1*
X5105753Y861744D1*
X5105147Y858309D1*
X5104302Y854924D1*
X5103222Y851606D1*
X5101914Y848371D1*
X5100383Y845236D1*
X5098636Y842215D1*
X5096683Y839322D1*
X5094533Y836573D1*
X5092196Y833981D1*
X5089683Y831558D1*
X5087008Y829315D1*
X5084182Y827265D1*
X5081220Y825416D1*
X5078136Y823778D1*
X5074945Y822359D1*
X5071663Y821166D1*
X5068306Y820205D1*
X5064889Y819479D1*
X5061431Y818994D1*
X5057946Y818750D1*
X5054454D1*
X5050969Y818994D1*
X5047511Y819479D1*
X5044094Y820205D1*
X5040737Y821166D1*
X5037455Y822359D1*
X5034264Y823778D1*
X5031180Y825416D1*
X5028218Y827265D1*
X5025392Y829315D1*
X5022717Y831558D1*
X5020204Y833981D1*
X5017867Y836573D1*
X5015717Y839322D1*
X5013764Y842215D1*
X5012017Y845236D1*
X5010486Y848371D1*
X5009178Y851606D1*
X5008098Y854924D1*
X5007253Y858309D1*
X5006647Y861744D1*
X5006282Y865214D1*
X5006160Y868700D1*
X5106240D1*
X5056240Y918680D2*
Y818720D1*
G36*
X5343680Y843680D2*
X5518720D1*
Y668720D1*
X5343680D1*
Y843680D1*
G37*
X2718700Y568700D2*
D10*
X2118700D1*
Y1568700D1*
X2718700D1*
Y568700D1*
X2218720Y1518700D2*
X2368720D1*
Y1418700D1*
X2418700D1*
Y1518700D1*
X2468680D1*
Y1418700D1*
X2518720D1*
Y1518700D1*
X2568700D1*
Y1418700D1*
X2618680D1*
Y1518700D1*
X2668720D1*
Y1318700D1*
X2268700D1*
X2668720D2*
Y1268700D1*
X3572413Y1291923D2*
D52*
Y1256053D1*
X3570036Y1248868D1*
X3565228Y1244115D1*
X3558043Y1241683D1*
X3553290D1*
X3546105Y1244115D1*
X3541296Y1248868D1*
X3538920Y1256053D1*
Y1291923D1*
X3518672Y1291868D2*
X3492419D1*
X3506734Y1272745D1*
X3499549D1*
X3494795Y1270368D1*
X3492419Y1267991D1*
X3489987Y1260806D1*
Y1256053D1*
X3492419Y1248868D1*
X3497172Y1244060D1*
X3504357Y1241683D1*
X3511542D1*
X3518672Y1244060D1*
X3521049Y1246492D1*
X3523480Y1251245D1*
X898629Y1241923D2*
Y1191683D1*
X881883D1*
X874698Y1194115D1*
X869889Y1198868D1*
X867513Y1203677D1*
X865136Y1210806D1*
Y1222800D1*
X867513Y1229985D1*
X869889Y1234738D1*
X874698Y1239546D1*
X881883Y1241923D1*
X898629D1*
X849697Y1217991D2*
X828197D1*
X821012Y1220423D1*
X818580Y1222800D1*
X816203Y1227553D1*
Y1232361D1*
X818580Y1237115D1*
X821012Y1239546D1*
X828197Y1241923D1*
X849697D1*
Y1191683D1*
X832950Y1217991D2*
X816203Y1191683D1*
X800764Y1232306D2*
X795956Y1234738D1*
X788771Y1241868D1*
Y1191683D1*
X1734379Y1241923D2*
Y1191683D1*
X1717633D1*
X1710448Y1194115D1*
X1705639Y1198868D1*
X1703263Y1203677D1*
X1700886Y1210806D1*
Y1222800D1*
X1703263Y1229985D1*
X1705639Y1234738D1*
X1710448Y1239546D1*
X1717633Y1241923D1*
X1734379D1*
X1685447Y1217991D2*
X1663947D1*
X1656762Y1220423D1*
X1654330Y1222800D1*
X1651953Y1227553D1*
Y1232361D1*
X1654330Y1237115D1*
X1656762Y1239546D1*
X1663947Y1241923D1*
X1685447D1*
Y1191683D1*
X1668700Y1217991D2*
X1651953Y1191683D1*
X1634082Y1229930D2*
Y1232306D1*
X1631706Y1237115D1*
X1629329Y1239491D1*
X1624521Y1241868D1*
X1614959D1*
X1610206Y1239491D1*
X1607829Y1237115D1*
X1605397Y1232306D1*
Y1227553D1*
X1607829Y1222745D1*
X1612582Y1215615D1*
X1636514Y1191683D1*
X1603021D1*
X5446879Y1241923D2*
Y1191683D1*
X5430133D1*
X5422948Y1194115D1*
X5418139Y1198868D1*
X5415763Y1203677D1*
X5413386Y1210806D1*
Y1222800D1*
X5415763Y1229985D1*
X5418139Y1234738D1*
X5422948Y1239546D1*
X5430133Y1241923D1*
X5446879D1*
X5397947Y1217991D2*
X5376447D1*
X5369262Y1220423D1*
X5366830Y1222800D1*
X5364453Y1227553D1*
Y1232361D1*
X5366830Y1237115D1*
X5369262Y1239546D1*
X5376447Y1241923D1*
X5397947D1*
Y1191683D1*
X5381200Y1217991D2*
X5364453Y1191683D1*
X5344206Y1241868D2*
X5317953D1*
X5332267Y1222745D1*
X5325082D1*
X5320329Y1220368D1*
X5317953Y1217991D1*
X5315521Y1210806D1*
Y1206053D1*
X5317953Y1198868D1*
X5322706Y1194060D1*
X5329891Y1191683D1*
X5337076D1*
X5344206Y1194060D1*
X5346582Y1196492D1*
X5349014Y1201245D1*
X2458697Y1641923D2*
Y1606053D1*
X2456320Y1598868D1*
X2451512Y1594115D1*
X2444327Y1591683D1*
X2439574D1*
X2432389Y1594115D1*
X2427580Y1598868D1*
X2425204Y1606053D1*
Y1641923D1*
X2381080Y1634738D2*
X2383456Y1639491D1*
X2390641Y1641868D1*
X2395394D1*
X2402579Y1639491D1*
X2407388Y1632306D1*
X2409764Y1620368D1*
Y1608430D1*
X2407388Y1598868D1*
X2402579Y1594060D1*
X2395394Y1591683D1*
X2393018D1*
X2385888Y1594060D1*
X2381080Y1598868D1*
X2378703Y1606053D1*
Y1608430D1*
X2381080Y1615615D1*
X2385888Y1620368D1*
X2393018Y1622745D1*
X2395394D1*
X2402579Y1620368D1*
X2407388Y1615615D1*
X2409764Y1608430D1*
X3213708Y1001229D2*
D53*
X3133324Y1031914D1*
X3213708Y1062511D1*
X3186913Y1051015D2*
Y1012725D1*
X3160119Y976526D2*
X3213708D1*
X3183111D2*
X3171615Y972635D1*
X3163921Y965030D1*
X3160119Y957336D1*
Y945840D1*
X3133324Y875241D2*
X3213708D1*
X3171615D2*
X3163921Y882847D1*
X3160119Y890540D1*
Y902036D1*
X3163921Y909641D1*
X3171615Y917335D1*
X3183111Y921137D1*
X3190716D1*
X3202212Y917335D1*
X3209817Y909641D1*
X3213708Y902036D1*
Y890540D1*
X3209817Y882847D1*
X3202212Y875241D1*
X3160119Y850539D2*
X3198409D1*
X3209817Y846736D1*
X3213708Y839043D1*
Y827547D1*
X3209817Y819941D1*
X3198409Y808445D1*
X3160119D2*
X3213708D1*
X3133324Y783743D2*
X3137127Y779940D1*
X3133324Y776049D1*
X3129433Y779940D1*
X3133324Y783743D1*
X3160119Y779940D2*
X3213708D1*
X3160119Y751346D2*
X3213708D1*
X3175417D2*
X3163921Y739850D1*
X3160119Y732157D1*
Y720749D1*
X3163921Y713056D1*
X3175417Y709253D1*
X3213708D1*
X3160119Y665449D2*
X3163921Y673054D1*
X3171615Y680748D1*
X3183111Y684550D1*
X3190716D1*
X3202212Y680748D1*
X3209817Y673054D1*
X3213708Y665449D1*
Y653953D1*
X3209817Y646260D1*
X3202212Y638655D1*
X3190716Y634764D1*
X3183111D1*
X3171615Y638655D1*
X3163921Y646260D1*
X3160119Y653953D1*
Y665449D1*
X3258409Y933939D2*
X3338793D1*
X3258409Y987528D1*
X3338793D1*
X3285204Y863340D2*
X3338793D1*
X3296700D2*
X3289006Y870945D1*
X3285204Y878639D1*
Y890046D1*
X3289006Y897740D1*
X3296700Y905345D1*
X3308196Y909236D1*
X3315801D1*
X3327297Y905345D1*
X3334902Y897740D1*
X3338793Y890046D1*
Y878639D1*
X3334902Y870945D1*
X3327297Y863340D1*
X3285204Y838637D2*
X3338793D1*
X3300502D2*
X3289006Y827141D1*
X3285204Y819448D1*
Y808040D1*
X3289006Y800347D1*
X3300502Y796544D1*
X3338793D1*
X3285204Y752740D2*
X3289006Y760345D1*
X3296700Y768039D1*
X3308196Y771841D1*
X3315801D1*
X3327297Y768039D1*
X3334902Y760345D1*
X3338793Y752740D1*
Y741244D1*
X3334902Y733551D1*
X3327297Y725945D1*
X3315801Y722055D1*
X3308196D1*
X3296700Y725945D1*
X3289006Y733551D1*
X3285204Y741244D1*
Y752740D1*
X2782322Y678121D2*
D54*
X2822514Y662823D1*
X2782322Y647524D1*
Y635173D2*
X2822514D1*
X2782322Y596027D2*
X2822514D1*
X2782322Y622821D1*
X2822514D1*
X2891848Y674460D2*
X2888045Y676361D1*
X2884198Y680208D1*
X2882297Y684010D1*
Y691659D1*
X2884198Y695506D1*
X2888045Y699309D1*
X2891848Y701254D1*
X2897596Y703155D1*
X2907190D1*
X2912894Y701254D1*
X2916741Y699309D1*
X2920543Y695506D1*
X2922489Y691659D1*
Y684010D1*
X2920543Y680208D1*
X2916741Y676361D1*
X2912894Y674460D1*
X2907190D1*
Y684010D1*
X2882297Y635314D2*
X2922489Y635313D1*
X2882297Y662108D1*
X2922489D1*
X2882297Y622962D2*
X2922489D1*
Y609565D1*
X2920544Y603817D1*
X2916741Y599970D1*
X2912894Y598069D1*
X2907190Y596168D1*
X2897596D1*
X2891848Y598069D1*
X2888045Y599970D1*
X2884198Y603817D1*
X2882297Y609565D1*
Y622962D1*
X2782322Y1102215D2*
X2822514D1*
X2782322Y1115613D2*
Y1088818D1*
Y1076467D2*
X2822514Y1049672D1*
X2782322D2*
X2822514Y1076466D1*
X2901442Y1115613D2*
Y1098413D1*
X2899497Y1092665D1*
X2897596Y1090719D1*
X2893793Y1088818D1*
X2889946D1*
X2886144Y1090719D1*
X2884198Y1092665D1*
X2882297Y1098413D1*
Y1115613D1*
X2922489D1*
X2901442Y1102215D2*
X2922489Y1088818D1*
X2882297Y1076467D2*
X2922489Y1049672D1*
X2882297D2*
X2922489Y1076466D1*
X479298Y1049440D2*
X475495Y1051341D1*
X471648Y1055188D1*
X469747Y1058991D1*
Y1066640D1*
X471648Y1070487D1*
X475495Y1074289D1*
X479298Y1076235D1*
X485046Y1078136D1*
X494640D1*
X500344Y1076235D1*
X504191Y1074289D1*
X507993Y1070487D1*
X509939Y1066640D1*
Y1058991D1*
X507993Y1055188D1*
X504191Y1051341D1*
X500344Y1049440D1*
X494640D1*
Y1058991D1*
X469747Y1010294D2*
X509939D1*
X469747Y1037089D1*
X509939D1*
X469747Y997943D2*
X509939D1*
Y984545D1*
X507994Y978797D1*
X504191Y974951D1*
X500344Y973049D1*
X494640Y971148D1*
X485046D1*
X479298Y973049D1*
X475495Y974951D1*
X471648Y978797D1*
X469747Y984545D1*
Y997943D1*
X582307Y853137D2*
X622499Y837838D1*
X582307Y822539D1*
X601452Y810188D2*
Y792988D1*
X599507Y787240D1*
X597606Y785295D1*
X593803Y783393D1*
X589956D1*
X586154Y785295D1*
X584208Y787240D1*
X582307Y792988D1*
Y810188D1*
X622499D1*
X601452Y796791D2*
X622499Y783393D1*
X582307Y746193D2*
Y771042D1*
X622499D1*
Y746193D1*
X601452Y771042D2*
Y755743D1*
X582307Y708948D2*
Y733841D1*
X622499D1*
X601452D2*
Y718543D1*
X569747Y1078117D2*
X609939Y1062819D1*
X569747Y1047520D1*
Y1035169D2*
X609939D1*
Y1021771D1*
X607994Y1016023D1*
X604191Y1012176D1*
X600344Y1010275D1*
X594640Y1008374D1*
X585046D1*
X579298Y1010275D1*
X575495Y1012177D1*
X571648Y1016023D1*
X569747Y1021771D1*
Y1035169D1*
Y996023D2*
X609939D1*
Y982625D1*
X607994Y976877D1*
X604191Y973031D1*
X600344Y971129D1*
X594640Y969228D1*
X585046D1*
X579298Y971129D1*
X575495Y973031D1*
X571648Y976877D1*
X569747Y982625D1*
Y996023D1*
X763698Y988727D2*
D53*
X683314Y1019413D1*
X763698Y1050010D1*
X736903Y1038514D2*
Y1000223D1*
X763698Y925734D2*
X683402D1*
X736903Y964025D1*
Y906633D1*
X710109Y832143D2*
X721605Y836034D1*
X729298Y843639D1*
X733101Y855135D1*
Y858938D1*
X729298Y870434D1*
X721605Y878039D1*
X710109Y881930D1*
X706306D1*
X694810Y878039D1*
X687205Y870434D1*
X683402Y858938D1*
Y855135D1*
X687205Y843639D1*
X694810Y836034D1*
X710109Y832143D1*
X729298D1*
X748399Y836034D1*
X759895Y843639D1*
X763698Y855135D1*
Y862740D1*
X759895Y874236D1*
X752202Y878039D1*
X683402Y788339D2*
X687205Y799747D1*
X694810Y803638D1*
X702504D1*
X710109Y799747D1*
X714000Y792142D1*
X717802Y776843D1*
X721605Y765347D1*
X729298Y757742D1*
X736903Y753939D1*
X748399D1*
X756004Y757742D1*
X759895Y761545D1*
X763698Y773041D1*
Y788339D1*
X759895Y799747D1*
X756004Y803638D1*
X748399Y807440D1*
X736903D1*
X729298Y803638D1*
X721605Y795944D1*
X717802Y784537D1*
X714000Y769238D1*
X710109Y761545D1*
X702504Y757742D1*
X694810D1*
X687205Y761545D1*
X683402Y773041D1*
Y788339D1*
Y710136D2*
X687205Y721543D1*
X694810Y725434D1*
X702504D1*
X710109Y721543D1*
X714000Y713938D1*
X717802Y698640D1*
X721605Y687143D1*
X729298Y679538D1*
X736903Y675736D1*
X748399D1*
X756004Y679538D1*
X759895Y683341D1*
X763698Y694837D1*
Y710136D1*
X759895Y721543D1*
X756004Y725434D1*
X748399Y729237D1*
X736903D1*
X729298Y725434D1*
X721605Y717741D1*
X717802Y706333D1*
X714000Y691034D1*
X710109Y683341D1*
X702503Y679538D1*
X694810D1*
X687205Y683341D1*
X683402Y694837D1*
Y710136D1*
X1079298Y1049440D2*
D54*
X1075495Y1051341D1*
X1071648Y1055188D1*
X1069747Y1058991D1*
Y1066640D1*
X1071648Y1070487D1*
X1075495Y1074289D1*
X1079298Y1076235D1*
X1085046Y1078136D1*
X1094640D1*
X1100344Y1076235D1*
X1104191Y1074289D1*
X1107993Y1070487D1*
X1109939Y1066640D1*
Y1058991D1*
X1107993Y1055188D1*
X1104191Y1051341D1*
X1100344Y1049440D1*
X1094640D1*
Y1058991D1*
X1069747Y1010294D2*
X1109939D1*
X1069747Y1037089D1*
X1109939D1*
X1069747Y997943D2*
X1109939D1*
Y984545D1*
X1107994Y978797D1*
X1104191Y974951D1*
X1100344Y973049D1*
X1094640Y971148D1*
X1085046D1*
X1079298Y973049D1*
X1075495Y974951D1*
X1071648Y978797D1*
X1069747Y984545D1*
Y997943D1*
X1169747Y1078128D2*
X1209939Y1062830D1*
X1169747Y1047531D1*
X1209939Y1004583D2*
X1169747D1*
X1209939Y1019881D1*
X1169747Y1035180D1*
X1209939D1*
X1169747Y980735D2*
X1171648Y984582D1*
X1175495Y988384D1*
X1179298Y990330D1*
X1185046Y992231D1*
X1194640D1*
X1200344Y990330D1*
X1204191Y988384D1*
X1207994Y984582D1*
X1209939Y980735D1*
Y973086D1*
X1207994Y969283D1*
X1204191Y965436D1*
X1200344Y963535D1*
X1194640Y961634D1*
X1185046D1*
X1179298Y963535D1*
X1175495Y965437D1*
X1171648Y969283D1*
X1169747Y973086D1*
Y980735D1*
Y935885D2*
X1209939D1*
X1169747Y949283D2*
Y922488D1*
X1304298Y1049440D2*
X1300495Y1051341D1*
X1296648Y1055188D1*
X1294747Y1058991D1*
Y1066640D1*
X1296648Y1070487D1*
X1300495Y1074289D1*
X1304298Y1076235D1*
X1310046Y1078136D1*
X1319640D1*
X1325344Y1076235D1*
X1329191Y1074289D1*
X1332993Y1070487D1*
X1334939Y1066640D1*
Y1058991D1*
X1332993Y1055188D1*
X1329191Y1051341D1*
X1325344Y1049440D1*
X1319640D1*
Y1058991D1*
X1294747Y1010294D2*
X1334939D1*
X1294747Y1037089D1*
X1334939D1*
X1294747Y997943D2*
X1334939D1*
Y984545D1*
X1332994Y978797D1*
X1329191Y974951D1*
X1325344Y973049D1*
X1319640Y971148D1*
X1310046D1*
X1304298Y973049D1*
X1300495Y974951D1*
X1296648Y978797D1*
X1294747Y984545D1*
Y997943D1*
X1407307Y853137D2*
X1447499Y837838D1*
X1407307Y822539D1*
X1426452Y810188D2*
Y792988D1*
X1424507Y787240D1*
X1422606Y785295D1*
X1418803Y783393D1*
X1414956D1*
X1411154Y785295D1*
X1409208Y787240D1*
X1407307Y792988D1*
Y810188D1*
X1447499D1*
X1426452Y796791D2*
X1447499Y783393D1*
X1407307Y746193D2*
Y771042D1*
X1447499D1*
Y746193D1*
X1426452Y771042D2*
Y755743D1*
X1407307Y708948D2*
Y733841D1*
X1447499D1*
X1426452D2*
Y718543D1*
X1394747Y1078117D2*
X1434939Y1062819D1*
X1394747Y1047520D1*
Y1035169D2*
X1434939D1*
Y1021771D1*
X1432994Y1016023D1*
X1429191Y1012176D1*
X1425344Y1010275D1*
X1419640Y1008374D1*
X1410046D1*
X1404298Y1010275D1*
X1400495Y1012177D1*
X1396648Y1016023D1*
X1394747Y1021771D1*
Y1035169D1*
Y996023D2*
X1434939D1*
Y982625D1*
X1432994Y976877D1*
X1429191Y973031D1*
X1425344Y971129D1*
X1419640Y969228D1*
X1410046D1*
X1404298Y971129D1*
X1400495Y973031D1*
X1396648Y976877D1*
X1394747Y982625D1*
Y996023D1*
X1588698Y988727D2*
D53*
X1508314Y1019413D1*
X1588698Y1050010D1*
X1561903Y1038514D2*
Y1000223D1*
X1588698Y925734D2*
X1508402D1*
X1561903Y964025D1*
Y906633D1*
X1535109Y832143D2*
X1546605Y836034D1*
X1554298Y843639D1*
X1558101Y855135D1*
Y858938D1*
X1554298Y870434D1*
X1546605Y878039D1*
X1535109Y881930D1*
X1531306D1*
X1519810Y878039D1*
X1512205Y870434D1*
X1508402Y858938D1*
Y855135D1*
X1512205Y843639D1*
X1519810Y836034D1*
X1535109Y832143D1*
X1554298D1*
X1573399Y836034D1*
X1584895Y843639D1*
X1588698Y855135D1*
Y862740D1*
X1584895Y874236D1*
X1577202Y878039D1*
X1508402Y788339D2*
X1512205Y799747D1*
X1519810Y803638D1*
X1527504D1*
X1535109Y799747D1*
X1539000Y792142D1*
X1542802Y776843D1*
X1546605Y765347D1*
X1554298Y757742D1*
X1561903Y753939D1*
X1573399D1*
X1581004Y757742D1*
X1584895Y761545D1*
X1588698Y773041D1*
Y788339D1*
X1584895Y799747D1*
X1581004Y803638D1*
X1573399Y807440D1*
X1561903D1*
X1554298Y803638D1*
X1546605Y795944D1*
X1542802Y784537D1*
X1539000Y769238D1*
X1535109Y761545D1*
X1527504Y757742D1*
X1519810D1*
X1512205Y761545D1*
X1508402Y773041D1*
Y788339D1*
Y710136D2*
X1512205Y721543D1*
X1519810Y725434D1*
X1527504D1*
X1535109Y721543D1*
X1539000Y713938D1*
X1542802Y698640D1*
X1546605Y687143D1*
X1554298Y679538D1*
X1561903Y675736D1*
X1573399D1*
X1581004Y679538D1*
X1584895Y683341D1*
X1588698Y694837D1*
Y710136D1*
X1584895Y721543D1*
X1581004Y725434D1*
X1573399Y729237D1*
X1561903D1*
X1554298Y725434D1*
X1546605Y717741D1*
X1542802Y706333D1*
X1539000Y691034D1*
X1535109Y683341D1*
X1527503Y679538D1*
X1519810D1*
X1512205Y683341D1*
X1508402Y694837D1*
Y710136D1*
X1904298Y1049440D2*
D54*
X1900495Y1051341D1*
X1896648Y1055188D1*
X1894747Y1058991D1*
Y1066640D1*
X1896648Y1070487D1*
X1900495Y1074289D1*
X1904298Y1076235D1*
X1910046Y1078136D1*
X1919640D1*
X1925344Y1076235D1*
X1929191Y1074289D1*
X1932993Y1070487D1*
X1934939Y1066640D1*
Y1058991D1*
X1932993Y1055188D1*
X1929191Y1051341D1*
X1925344Y1049440D1*
X1919640D1*
Y1058991D1*
X1894747Y1010294D2*
X1934939D1*
X1894747Y1037089D1*
X1934939D1*
X1894747Y997943D2*
X1934939D1*
Y984545D1*
X1932994Y978797D1*
X1929191Y974951D1*
X1925344Y973049D1*
X1919640Y971148D1*
X1910046D1*
X1904298Y973049D1*
X1900495Y974951D1*
X1896648Y978797D1*
X1894747Y984545D1*
Y997943D1*
X1994747Y1078128D2*
X2034939Y1062830D1*
X1994747Y1047531D1*
X2034939Y1004583D2*
X1994747D1*
X2034939Y1019881D1*
X1994747Y1035180D1*
X2034939D1*
X1994747Y980735D2*
X1996648Y984582D1*
X2000495Y988384D1*
X2004298Y990330D1*
X2010046Y992231D1*
X2019640D1*
X2025344Y990330D1*
X2029191Y988384D1*
X2032994Y984582D1*
X2034939Y980735D1*
Y973086D1*
X2032994Y969283D1*
X2029191Y965436D1*
X2025344Y963535D1*
X2019640Y961634D1*
X2010046D1*
X2004298Y963535D1*
X2000495Y965437D1*
X1996648Y969283D1*
X1994747Y973086D1*
Y980735D1*
Y935885D2*
X2034939D1*
X1994747Y949283D2*
Y922488D1*
X5016798Y1049440D2*
X5012995Y1051341D1*
X5009148Y1055188D1*
X5007247Y1058991D1*
Y1066640D1*
X5009148Y1070487D1*
X5012995Y1074289D1*
X5016798Y1076235D1*
X5022546Y1078136D1*
X5032140D1*
X5037844Y1076235D1*
X5041691Y1074289D1*
X5045493Y1070487D1*
X5047439Y1066640D1*
Y1058991D1*
X5045493Y1055188D1*
X5041691Y1051341D1*
X5037844Y1049440D1*
X5032140D1*
Y1058991D1*
X5007247Y1010294D2*
X5047439D1*
X5007247Y1037089D1*
X5047439D1*
X5007247Y997943D2*
X5047439D1*
Y984545D1*
X5045494Y978797D1*
X5041691Y974951D1*
X5037844Y973049D1*
X5032140Y971148D1*
X5022546D1*
X5016798Y973049D1*
X5012995Y974951D1*
X5009148Y978797D1*
X5007247Y984545D1*
Y997943D1*
X5119807Y853137D2*
X5159999Y837838D1*
X5119807Y822539D1*
X5138952Y810188D2*
Y792988D1*
X5137007Y787240D1*
X5135106Y785295D1*
X5131303Y783393D1*
X5127456D1*
X5123654Y785295D1*
X5121708Y787240D1*
X5119807Y792988D1*
Y810188D1*
X5159999D1*
X5138952Y796791D2*
X5159999Y783393D1*
X5119807Y746193D2*
Y771042D1*
X5159999D1*
Y746193D1*
X5138952Y771042D2*
Y755743D1*
X5119807Y708948D2*
Y733841D1*
X5159999D1*
X5138952D2*
Y718543D1*
X5107247Y1078117D2*
X5147439Y1062819D1*
X5107247Y1047520D1*
Y1035169D2*
X5147439D1*
Y1021771D1*
X5145494Y1016023D1*
X5141691Y1012176D1*
X5137844Y1010275D1*
X5132140Y1008374D1*
X5122546D1*
X5116798Y1010275D1*
X5112995Y1012177D1*
X5109148Y1016023D1*
X5107247Y1021771D1*
Y1035169D1*
Y996023D2*
X5147439D1*
Y982625D1*
X5145494Y976877D1*
X5141691Y973031D1*
X5137844Y971129D1*
X5132140Y969228D1*
X5122546D1*
X5116798Y971129D1*
X5112995Y973031D1*
X5109148Y976877D1*
X5107247Y982625D1*
Y996023D1*
X5301198Y988727D2*
D53*
X5220814Y1019413D1*
X5301198Y1050010D1*
X5274403Y1038514D2*
Y1000223D1*
X5301198Y925734D2*
X5220902D1*
X5274403Y964025D1*
Y906633D1*
X5247609Y832143D2*
X5259105Y836034D1*
X5266798Y843639D1*
X5270601Y855135D1*
Y858938D1*
X5266798Y870434D1*
X5259105Y878039D1*
X5247609Y881930D1*
X5243806D1*
X5232310Y878039D1*
X5224705Y870434D1*
X5220902Y858938D1*
Y855135D1*
X5224705Y843639D1*
X5232310Y836034D1*
X5247609Y832143D1*
X5266798D1*
X5285899Y836034D1*
X5297395Y843639D1*
X5301198Y855135D1*
Y862740D1*
X5297395Y874236D1*
X5289702Y878039D1*
X5220902Y788339D2*
X5224705Y799747D1*
X5232310Y803638D1*
X5240004D1*
X5247609Y799747D1*
X5251500Y792142D1*
X5255302Y776843D1*
X5259105Y765347D1*
X5266798Y757742D1*
X5274403Y753939D1*
X5285899D1*
X5293504Y757742D1*
X5297395Y761545D1*
X5301198Y773041D1*
Y788339D1*
X5297395Y799747D1*
X5293504Y803638D1*
X5285899Y807440D1*
X5274403D1*
X5266798Y803638D1*
X5259105Y795944D1*
X5255302Y784537D1*
X5251500Y769238D1*
X5247609Y761545D1*
X5240004Y757742D1*
X5232310D1*
X5224705Y761545D1*
X5220902Y773041D1*
Y788339D1*
Y710136D2*
X5224705Y721543D1*
X5232310Y725434D1*
X5240004D1*
X5247609Y721543D1*
X5251500Y713938D1*
X5255302Y698640D1*
X5259105Y687143D1*
X5266798Y679538D1*
X5274403Y675736D1*
X5285899D1*
X5293504Y679538D1*
X5297395Y683341D1*
X5301198Y694837D1*
Y710136D1*
X5297395Y721543D1*
X5293504Y725434D1*
X5285899Y729237D1*
X5274403D1*
X5266798Y725434D1*
X5259105Y717741D1*
X5255302Y706333D1*
X5251500Y691034D1*
X5247609Y683341D1*
X5240003Y679538D1*
X5232310D1*
X5224705Y683341D1*
X5220902Y694837D1*
Y710136D1*
X5616798Y1049440D2*
D54*
X5612995Y1051341D1*
X5609148Y1055188D1*
X5607247Y1058991D1*
Y1066640D1*
X5609148Y1070487D1*
X5612995Y1074289D1*
X5616798Y1076235D1*
X5622546Y1078136D1*
X5632140D1*
X5637844Y1076235D1*
X5641691Y1074289D1*
X5645493Y1070487D1*
X5647439Y1066640D1*
Y1058991D1*
X5645493Y1055188D1*
X5641691Y1051341D1*
X5637844Y1049440D1*
X5632140D1*
Y1058991D1*
X5607247Y1010294D2*
X5647439D1*
X5607247Y1037089D1*
X5647439D1*
X5607247Y997943D2*
X5647439D1*
Y984545D1*
X5645494Y978797D1*
X5641691Y974951D1*
X5637844Y973049D1*
X5632140Y971148D1*
X5622546D1*
X5616798Y973049D1*
X5612995Y974951D1*
X5609148Y978797D1*
X5607247Y984545D1*
Y997943D1*
X5707247Y1078128D2*
X5747439Y1062830D1*
X5707247Y1047531D1*
X5747439Y1004583D2*
X5707247D1*
X5747439Y1019881D1*
X5707247Y1035180D1*
X5747439D1*
X5707247Y980735D2*
X5709148Y984582D1*
X5712995Y988384D1*
X5716798Y990330D1*
X5722546Y992231D1*
X5732140D1*
X5737844Y990330D1*
X5741691Y988384D1*
X5745494Y984582D1*
X5747439Y980735D1*
Y973086D1*
X5745494Y969283D1*
X5741691Y965436D1*
X5737844Y963535D1*
X5732140Y961634D1*
X5722546D1*
X5716798Y963535D1*
X5712995Y965437D1*
X5709148Y969283D1*
X5707247Y973086D1*
Y980735D1*
Y935885D2*
X5747439D1*
X5707247Y949283D2*
Y922488D1*
X2612858Y1066566D2*
D53*
X2662556D1*
Y986182D1*
X2612858D1*
X2662556Y1028275D2*
X2631959D1*
X2534566Y1055070D2*
X2542171Y1062764D1*
X2553667Y1066566D1*
X2568966D1*
X2580462Y1062764D1*
X2588155Y1055070D1*
Y1047465D1*
X2584264Y1039771D1*
X2580462Y1035969D1*
X2572857Y1032166D1*
X2549865Y1024473D1*
X2542171Y1020670D1*
X2538369Y1016779D1*
X2534566Y1009174D1*
Y997678D1*
X2542171Y990073D1*
X2553667Y986182D1*
X2568966D1*
X2580462Y990073D1*
X2588155Y997678D1*
X2509863Y1024473D2*
X2475375D1*
X2463967Y1028275D1*
X2460076Y1032166D1*
X2456274Y1039771D1*
Y1051267D1*
X2460076Y1058873D1*
X2463967Y1062764D1*
X2475375Y1066566D1*
X2509863D1*
Y986182D1*
X2412470Y1066478D2*
X2423878Y1062675D1*
X2427769Y1055070D1*
Y1047377D1*
X2423878Y1039771D1*
X2416272Y1035880D1*
X2400974Y1032078D1*
X2389478Y1028275D1*
X2381873Y1020582D1*
X2378070Y1012977D1*
Y1001481D1*
X2381873Y993876D1*
X2385675Y989985D1*
X2397171Y986182D1*
X2412470D1*
X2423878Y989985D1*
X2427769Y993876D1*
X2431571Y1001481D1*
Y1012977D1*
X2427769Y1020582D1*
X2420075Y1028275D1*
X2408667Y1032078D1*
X2393369Y1035880D1*
X2385675Y1039771D1*
X2381873Y1047377D1*
Y1055070D1*
X2385675Y1062675D1*
X2397171Y1066478D1*
X2412470D1*
X2349476Y1047377D2*
Y1051179D1*
X2345674Y1058873D1*
X2341871Y1062675D1*
X2334178Y1066478D1*
X2318879D1*
X2311274Y1062675D1*
X2307472Y1058873D1*
X2303581Y1051179D1*
Y1043574D1*
X2307472Y1035880D1*
X2315077Y1024473D1*
X2353367Y986182D1*
X2299778D1*
X2229179Y1055070D2*
X2232982Y1062675D1*
X2244478Y1066478D1*
X2252083D1*
X2263579Y1062675D1*
X2271273Y1051179D1*
X2275075Y1032078D1*
Y1012977D1*
X2271273Y997678D1*
X2263579Y989985D1*
X2252083Y986182D1*
X2248281D1*
X2236873Y989985D1*
X2229179Y997678D1*
X2225377Y1009174D1*
Y1012977D1*
X2229179Y1024473D1*
X2236873Y1032078D1*
X2248281Y1035880D1*
X2252083D1*
X2263579Y1032078D1*
X2271273Y1024473D1*
X2275075Y1012977D1*
X2154778Y1055070D2*
X2158581Y1062675D1*
X2170077Y1066478D1*
X2177682D1*
X2189178Y1062675D1*
X2196872Y1051179D1*
X2200674Y1032078D1*
Y1012977D1*
X2196872Y997678D1*
X2189178Y989985D1*
X2177682Y986182D1*
X2173879D1*
X2162472Y989985D1*
X2154778Y997678D1*
X2150976Y1009174D1*
Y1012977D1*
X2154778Y1024473D1*
X2162472Y1032078D1*
X2173879Y1035880D1*
X2177682D1*
X2189178Y1032078D1*
X2196872Y1024473D1*
X2200674Y1012977D1*
X2562803Y941566D2*
X2612501D1*
Y861182D1*
X2562803D1*
X2612501Y903275D2*
X2581904D1*
X2484511Y930070D2*
X2492116Y937764D1*
X2503612Y941566D1*
X2518911D1*
X2530407Y937764D1*
X2538100Y930070D1*
Y922465D1*
X2534209Y914771D1*
X2530407Y910969D1*
X2522801Y907166D1*
X2499809Y899473D1*
X2492116Y895670D1*
X2488313Y891779D1*
X2484511Y884174D1*
Y872678D1*
X2492116Y865073D1*
X2503612Y861182D1*
X2518911D1*
X2530407Y865073D1*
X2538100Y872678D1*
X2459808Y899473D2*
X2425320D1*
X2413912Y903275D1*
X2410021Y907166D1*
X2406219Y914771D1*
Y926267D1*
X2410021Y933873D1*
X2413912Y937764D1*
X2425320Y941566D1*
X2459808D1*
Y861182D1*
X2381516Y901330D2*
X2337300D1*
X2289605Y941478D2*
X2301101Y937675D1*
X2308795Y926179D1*
X2312597Y907078D1*
Y895582D1*
X2308795Y876481D1*
X2301101Y864985D1*
X2289605Y861182D1*
X2282000D1*
X2270504Y864985D1*
X2262899Y876481D1*
X2259008Y895582D1*
Y907078D1*
X2262899Y926179D1*
X2270504Y937675D1*
X2282000Y941478D1*
X2289605D1*
X2262899Y926179D2*
X2308795Y876481D1*
X2234305Y926179D2*
X2226612Y930070D1*
X2215116Y941478D1*
Y861182D1*
M02*
