G04 DipTrace 3.3.1.3*
G04 BottomMask.gbr*
%MOIN*%
G04 #@! TF.FileFunction,Soldermask,Bot*
G04 #@! TF.Part,Single*
%ADD27C,0.137801*%
%ADD34C,0.05788*%
%ADD36C,0.05788*%
%ADD44C,0.06698*%
%ADD46R,0.06698X0.06698*%
%ADD48R,0.066935X0.066935*%
%ADD50C,0.066935*%
%FSLAX26Y26*%
G04*
G70*
G90*
G75*
G01*
G04 BotMask*
%LPD*%
D50*
X2806200Y1168700D3*
X2906200D3*
X3006200D3*
X3106200D3*
X3206200D3*
X3306200D3*
X3406200D3*
X3506200D3*
X3606200D3*
X3706200D3*
X3806200D3*
X3906200D3*
X4006200D3*
X4106200D3*
X4206200D3*
Y543700D3*
X4106200D3*
X4006200D3*
X3906200D3*
X3806200D3*
X3706200D3*
X3606200D3*
X3506200D3*
X3406200D3*
X3306200D3*
X3206200D3*
X3106200D3*
X3006200D3*
X2906200D3*
X2806200D3*
D48*
X493700Y1118700D3*
D50*
X593700D3*
X693700D3*
X793700D3*
X893700D3*
X993700D3*
D48*
X1093700D3*
D50*
X1193700D3*
Y618700D3*
X1093700D3*
X993700D3*
X893700D3*
X793700D3*
X693700D3*
X593700D3*
X493700D3*
D48*
X1318700Y1118700D3*
D50*
X1418700D3*
X1518700D3*
X1618700D3*
X1718700D3*
X1818700D3*
D48*
X1918700D3*
D50*
X2018700D3*
Y618700D3*
X1918700D3*
X1818700D3*
X1718700D3*
X1618700D3*
X1518700D3*
X1418700D3*
X1318700D3*
D48*
X5031200Y1118700D3*
D50*
X5131200D3*
X5231200D3*
X5331200D3*
X5431200D3*
X5531200D3*
D48*
X5631200D3*
D50*
X5731200D3*
Y618700D3*
X5631200D3*
X5531200D3*
X5431200D3*
X5331200D3*
X5231200D3*
X5131200D3*
X5031200D3*
D46*
X2568700Y718700D3*
D44*
X2468700D3*
X2368700D3*
X2268700D3*
X2568700Y618700D3*
X2468700D3*
X2368700D3*
X2268700D3*
D36*
X2143700Y993700D3*
D34*
Y693700D3*
D50*
X2518700Y918700D3*
X2318700D3*
D27*
X493700Y493700D3*
X6106200Y1243700D3*
Y493700D3*
X493700Y1243700D3*
M02*
