M48
INCH
T01C0.0191
T02C0.022
T03C0.0354
T04C0.1378
%
T01
X+046682Y+009132
X+045892Y+010522
X+044187Y+008142
X+041942Y+007442
X+040387Y+008822
X+040187Y+006062
X+035687Y+006692
X+032687Y+007102
X+029687Y+007512
X+028687Y+007187
X+026653Y+008443
X+027813Y+009442
X+027192Y+011437
X+026603Y+005342
X+020857Y+004857
X+020857Y+007460
X+019822Y+009187
X+020862Y+011437
X+018142Y+007187
X+016767Y+007187
X+014745Y+006692
X+013727Y+009282
X+009682Y+007947
X+034522Y+010197
X+048437Y+008552
X+054687Y+008647
X+055317Y+008647
X+054857Y+006692
X+057817Y+007437
X+058227Y+006437
X+057442Y+009687
X+058072Y+010812
T02
X+021437Y+009937
X+021437Y+006937
T03
X+028062Y+011687
X+029062Y+011687
X+030062Y+011687
X+031062Y+011687
X+032062Y+011687
X+033062Y+011687
X+034062Y+011687
X+035062Y+011687
X+036062Y+011687
X+037062Y+011687
X+038062Y+011687
X+039062Y+011687
X+040062Y+011687
X+041062Y+011687
X+042062Y+011687
X+042062Y+005437
X+041062Y+005437
X+040062Y+005437
X+039062Y+005437
X+038062Y+005437
X+037062Y+005437
X+036062Y+005437
X+035062Y+005437
X+034062Y+005437
X+033062Y+005437
X+032062Y+005437
X+031062Y+005437
X+030062Y+005437
X+029062Y+005437
X+028062Y+005437
X+025687Y+006187
X+025687Y+007187
X+024687Y+007187
X+023687Y+007187
X+022687Y+007187
X+022687Y+006187
X+023687Y+006187
X+024687Y+006187
X+025187Y+009187
X+023187Y+009187
X+020187Y+011187
X+019187Y+011187
X+018187Y+011187
X+017187Y+011187
X+016187Y+011187
X+015187Y+011187
X+014187Y+011187
X+013187Y+011187
X+011937Y+011187
X+010937Y+011187
X+009937Y+011187
X+008937Y+011187
X+007937Y+011187
X+006937Y+011187
X+005937Y+011187
X+004937Y+011187
X+004937Y+006187
X+005937Y+006187
X+006937Y+006187
X+007937Y+006187
X+008937Y+006187
X+009937Y+006187
X+010937Y+006187
X+011937Y+006187
X+013187Y+006187
X+014187Y+006187
X+015187Y+006187
X+016187Y+006187
X+017187Y+006187
X+018187Y+006187
X+019187Y+006187
X+020187Y+006187
X+050312Y+006187
X+051312Y+006187
X+052312Y+006187
X+053312Y+006187
X+054312Y+006187
X+055312Y+006187
X+056312Y+006187
X+057312Y+006187
X+057312Y+011187
X+056312Y+011187
X+055312Y+011187
X+054312Y+011187
X+053312Y+011187
X+052312Y+011187
X+051312Y+011187
X+050312Y+011187
T04
X+004937Y+004937
X+004937Y+012437
X+061062Y+012437
X+061062Y+004937
T00
M30
