G04 DipTrace 3.3.1.3*
G04 TopPaste.gbr*
%MOIN*%
G04 #@! TF.FileFunction,Paste,Top*
G04 #@! TF.Part,Single*
%ADD39R,0.01712X0.04212*%
%ADD41R,0.09212X0.06712*%
%ADD43R,0.06712X0.09212*%
%FSLAX26Y26*%
G04*
G70*
G90*
G75*
G01*
G04 TopPaste*
%LPD*%
D43*
X681200Y968700D3*
X781200D3*
X881200D3*
X981200D3*
X1543700D3*
X1643700D3*
X1743700D3*
X1843700D3*
X5368700D3*
X5468700D3*
X5568700D3*
X5668700D3*
D41*
X5943700Y1181200D3*
Y1081200D3*
Y981200D3*
D43*
X3168700Y868700D3*
X3268700D3*
X2868700D3*
X2968700D3*
X2168700Y1143700D3*
X2268700D3*
D39*
X1068700Y718700D3*
X1031199D3*
X918700D3*
X881199D3*
X743700D3*
X781201D3*
X1918700D3*
X1881199D3*
X1768700D3*
X1731199D3*
X1593700D3*
X1631201D3*
X5718700D3*
X5681199D3*
X5568700D3*
X5531199D3*
X5418700D3*
X5381199D3*
D41*
X5943700Y543700D3*
Y643700D3*
Y743700D3*
Y843700D3*
D43*
X3468700Y868700D3*
X3568700D3*
X2443700Y1143700D3*
X2543700D3*
X2643700D3*
X4743700Y731200D3*
X4843700D3*
X4943700D3*
X4318700D3*
X4418700D3*
X4518700D3*
X4743700Y981200D3*
X4843700D3*
X4943700D3*
X4318700D3*
X4418700D3*
X4518700D3*
X3918700D3*
X4018700D3*
X4118700D3*
X3918700Y731200D3*
X4018700D3*
X4118700D3*
M02*
