G04 DipTrace 3.3.1.3*
G04 TopSilk.gbr*
%MOIN*%
G04 #@! TF.FileFunction,Legend,Top*
G04 #@! TF.Part,Single*
%ADD10C,0.009843*%
%ADD16C,0.015*%
%ADD52C,0.00772*%
%ADD54C,0.006176*%
%FSLAX26Y26*%
G04*
G70*
G90*
G75*
G01*
G04 TopSilk*
%LPD*%
X643700Y1031202D2*
D10*
X1018700D1*
X1506200D2*
X1881200D1*
X5331200D2*
X5706200D1*
X6006200Y1206188D2*
Y956212D1*
X3143695Y931200D2*
X3293705D1*
X3143695Y806200D2*
X3293705D1*
X2843695Y931200D2*
X2993705D1*
X2843695Y806200D2*
X2993705D1*
X2143695Y1206200D2*
X2293705D1*
X2143695Y1081200D2*
X2293705D1*
X1024949Y687450D2*
X1074950D1*
Y749950D2*
X1024949D1*
X874949Y687450D2*
X924950D1*
Y749950D2*
X874949D1*
X787451D2*
X737450D1*
Y687450D2*
X787451D1*
X1874949D2*
X1924950D1*
Y749950D2*
X1874949D1*
X1724949Y687450D2*
X1774950D1*
Y749950D2*
X1724949D1*
X1637451D2*
X1587450D1*
Y687450D2*
X1637451D1*
X5674949D2*
X5724950D1*
Y749950D2*
X5674949D1*
X5524949Y687450D2*
X5574950D1*
Y749950D2*
X5524949D1*
X5374949Y687450D2*
X5424950D1*
Y749950D2*
X5374949D1*
X6006193Y518707D2*
Y868713D1*
X3443695Y931200D2*
X3593705D1*
X3443695Y806200D2*
X3593705D1*
X2418695Y1081191D2*
X2668690D1*
X2173700Y923850D2*
X2113700D1*
X2173700Y763550D2*
Y923850D1*
Y763550D2*
X2113700D1*
Y923850D1*
X2543694Y793700D2*
X2293706D1*
Y1043700D1*
X2543694D1*
Y793700D1*
X5868700Y912451D2*
D16*
X6006200D1*
X586607Y954185D2*
D52*
Y1004425D1*
X567484Y954185D1*
X548360Y1004425D1*
Y954185D1*
X602046Y994808D2*
X606855Y997240D1*
X614040Y1004370D1*
Y954185D1*
X1438357D2*
Y1004425D1*
X1419234Y954185D1*
X1400110Y1004425D1*
Y954185D1*
X1456228Y992432D2*
Y994808D1*
X1458605Y999617D1*
X1460981Y1001993D1*
X1465790Y1004370D1*
X1475351D1*
X1480105Y1001993D1*
X1482481Y999617D1*
X1484913Y994808D1*
Y990055D1*
X1482481Y985247D1*
X1477728Y978117D1*
X1453796Y954185D1*
X1487290D1*
X5263357D2*
Y1004425D1*
X5244234Y954185D1*
X5225110Y1004425D1*
Y954185D1*
X5283605Y1004370D2*
X5309858D1*
X5295543Y985247D1*
X5302728D1*
X5307481Y982870D1*
X5309858Y980493D1*
X5312290Y973308D1*
Y968555D1*
X5309858Y961370D1*
X5305105Y956562D1*
X5297919Y954185D1*
X5290734D1*
X5283605Y956562D1*
X5281228Y958993D1*
X5278796Y963747D1*
X3210980Y997238D2*
X3206227Y1002046D1*
X3199042Y1004423D1*
X3189481D1*
X3182295Y1002046D1*
X3177487Y997238D1*
Y992485D1*
X3179919Y987676D1*
X3182295Y985300D1*
X3187049Y982923D1*
X3201419Y978115D1*
X3206227Y975738D1*
X3208604Y973306D1*
X3210980Y968553D1*
Y961368D1*
X3206227Y956615D1*
X3199042Y954183D1*
X3189481D1*
X3182295Y956615D1*
X3177487Y961368D1*
X3228851Y992430D2*
Y994806D1*
X3231228Y999615D1*
X3233605Y1001991D1*
X3238413Y1004368D1*
X3247975D1*
X3252728Y1001991D1*
X3255105Y999615D1*
X3257536Y994806D1*
Y990053D1*
X3255105Y985245D1*
X3250351Y978115D1*
X3226420Y954183D1*
X3259913D1*
X2910980Y997238D2*
X2906227Y1002046D1*
X2899042Y1004423D1*
X2889481D1*
X2882295Y1002046D1*
X2877487Y997238D1*
Y992485D1*
X2879919Y987676D1*
X2882295Y985300D1*
X2887049Y982923D1*
X2901419Y978115D1*
X2906227Y975738D1*
X2908604Y973306D1*
X2910980Y968553D1*
Y961368D1*
X2906227Y956615D1*
X2899042Y954183D1*
X2889481D1*
X2882295Y956615D1*
X2877487Y961368D1*
X2931228Y1004368D2*
X2957481D1*
X2943166Y985245D1*
X2950351D1*
X2955105Y982868D1*
X2957481Y980491D1*
X2959913Y973306D1*
Y968553D1*
X2957481Y961368D1*
X2952728Y956560D1*
X2945543Y954183D1*
X2938358D1*
X2931228Y956560D1*
X2928851Y958992D1*
X2926420Y963745D1*
X2209792Y1272238D2*
X2205039Y1277046D1*
X2197854Y1279423D1*
X2188292D1*
X2181107Y1277046D1*
X2176299Y1272238D1*
Y1267485D1*
X2178731Y1262676D1*
X2181107Y1260300D1*
X2185860Y1257923D1*
X2200230Y1253115D1*
X2205039Y1250738D1*
X2207415Y1248306D1*
X2209792Y1243553D1*
Y1236368D1*
X2205039Y1231615D1*
X2197854Y1229183D1*
X2188292D1*
X2181107Y1231615D1*
X2176299Y1236368D1*
X2249163Y1229183D2*
Y1279368D1*
X2225231Y1245930D1*
X2261101D1*
X1037449Y823173D2*
Y784927D1*
X1035072Y777742D1*
X1032640Y775365D1*
X1027887Y772933D1*
X1023079D1*
X1018326Y775365D1*
X1015949Y777742D1*
X1013517Y784927D1*
Y789680D1*
X1057697Y823118D2*
X1083950D1*
X1069635Y803995D1*
X1076820D1*
X1081573Y801618D1*
X1083950Y799241D1*
X1086381Y792056D1*
Y787303D1*
X1083950Y780118D1*
X1079196Y775310D1*
X1072011Y772933D1*
X1064826D1*
X1057697Y775310D1*
X1055320Y777742D1*
X1052888Y782495D1*
X887449Y823173D2*
Y784927D1*
X885072Y777742D1*
X882640Y775365D1*
X877887Y772933D1*
X873079D1*
X868326Y775365D1*
X865949Y777742D1*
X863517Y784927D1*
Y789680D1*
X905320Y811180D2*
Y813556D1*
X907697Y818365D1*
X910073Y820741D1*
X914882Y823118D1*
X924443D1*
X929196Y820741D1*
X931573Y818365D1*
X934005Y813556D1*
Y808803D1*
X931573Y803995D1*
X926820Y796865D1*
X902888Y772933D1*
X936381D1*
X760700Y823173D2*
Y784927D1*
X758324Y777742D1*
X755892Y775365D1*
X751139Y772933D1*
X746330D1*
X741577Y775365D1*
X739200Y777742D1*
X736768Y784927D1*
Y789680D1*
X776139Y813556D2*
X780948Y815988D1*
X788133Y823118D1*
Y772933D1*
X1888665Y823173D2*
Y784927D1*
X1886288Y777742D1*
X1883856Y775365D1*
X1879103Y772933D1*
X1874295D1*
X1869542Y775365D1*
X1867165Y777742D1*
X1864733Y784927D1*
Y789680D1*
X1932789Y815988D2*
X1930412Y820741D1*
X1923227Y823118D1*
X1918474D1*
X1911289Y820741D1*
X1906481Y813556D1*
X1904104Y801618D1*
Y789680D1*
X1906481Y780118D1*
X1911289Y775310D1*
X1918474Y772933D1*
X1920851D1*
X1927981Y775310D1*
X1932789Y780118D1*
X1935166Y787303D1*
Y789680D1*
X1932789Y796865D1*
X1927981Y801618D1*
X1920851Y803995D1*
X1918474D1*
X1911289Y801618D1*
X1906481Y796865D1*
X1904104Y789680D1*
X1737449Y823173D2*
Y784927D1*
X1735072Y777742D1*
X1732640Y775365D1*
X1727887Y772933D1*
X1723079D1*
X1718326Y775365D1*
X1715949Y777742D1*
X1713517Y784927D1*
Y789680D1*
X1781573Y823118D2*
X1757697D1*
X1755320Y801618D1*
X1757697Y803995D1*
X1764882Y806426D1*
X1772011D1*
X1779196Y803995D1*
X1784005Y799241D1*
X1786381Y792056D1*
Y787303D1*
X1784005Y780118D1*
X1779196Y775310D1*
X1772011Y772933D1*
X1764882D1*
X1757697Y775310D1*
X1755320Y777742D1*
X1752888Y782495D1*
X1598762Y823173D2*
Y784927D1*
X1596385Y777742D1*
X1593953Y775365D1*
X1589200Y772933D1*
X1584392D1*
X1579639Y775365D1*
X1577262Y777742D1*
X1574830Y784927D1*
Y789680D1*
X1638133Y772933D2*
Y823118D1*
X1614201Y789680D1*
X1650071D1*
X5688637Y823173D2*
Y784927D1*
X5686261Y777742D1*
X5683829Y775365D1*
X5679076Y772933D1*
X5674267D1*
X5669514Y775365D1*
X5667137Y777742D1*
X5664705Y784927D1*
Y789680D1*
X5735193Y806426D2*
X5732761Y799241D1*
X5728008Y794433D1*
X5720823Y792056D1*
X5718447D1*
X5711261Y794433D1*
X5706508Y799241D1*
X5704076Y806426D1*
Y808803D1*
X5706508Y815988D1*
X5711261Y820741D1*
X5718447Y823118D1*
X5720823D1*
X5728008Y820741D1*
X5732761Y815988D1*
X5735193Y806426D1*
Y794433D1*
X5732761Y782495D1*
X5728008Y775310D1*
X5720823Y772933D1*
X5716070D1*
X5708885Y775310D1*
X5706508Y780118D1*
X5537477Y823173D2*
Y784927D1*
X5535100Y777742D1*
X5532668Y775365D1*
X5527915Y772933D1*
X5523106D1*
X5518353Y775365D1*
X5515977Y777742D1*
X5513545Y784927D1*
Y789680D1*
X5564854Y823118D2*
X5557724Y820741D1*
X5555292Y815988D1*
Y811180D1*
X5557724Y806426D1*
X5562477Y803995D1*
X5572039Y801618D1*
X5579224Y799241D1*
X5583977Y794433D1*
X5586354Y789680D1*
Y782495D1*
X5583977Y777742D1*
X5581601Y775310D1*
X5574416Y772933D1*
X5564854D1*
X5557724Y775310D1*
X5555292Y777742D1*
X5552916Y782495D1*
Y789680D1*
X5555292Y794433D1*
X5560101Y799241D1*
X5567231Y801618D1*
X5576792Y803995D1*
X5581601Y806426D1*
X5583977Y811180D1*
Y815988D1*
X5581601Y820741D1*
X5574416Y823118D1*
X5564854D1*
X5387449Y823173D2*
Y784927D1*
X5385072Y777742D1*
X5382640Y775365D1*
X5377887Y772933D1*
X5373079D1*
X5368326Y775365D1*
X5365949Y777742D1*
X5363517Y784927D1*
Y789680D1*
X5412450Y772933D2*
X5436381Y823118D1*
X5402888D1*
X5803676Y497075D2*
Y446835D1*
X5837169Y497075D2*
Y446835D1*
X5803676Y473144D2*
X5837169D1*
X5855040Y485082D2*
Y487458D1*
X5857417Y492267D1*
X5859794Y494643D1*
X5864602Y497020D1*
X5874164D1*
X5878917Y494643D1*
X5881293Y492267D1*
X5883725Y487458D1*
Y482705D1*
X5881293Y477897D1*
X5876540Y470767D1*
X5852609Y446835D1*
X5886102D1*
X3521730Y997238D2*
X3516977Y1002046D1*
X3509792Y1004423D1*
X3500230D1*
X3493045Y1002046D1*
X3488237Y997238D1*
Y992485D1*
X3490669Y987676D1*
X3493045Y985300D1*
X3497799Y982923D1*
X3512169Y978115D1*
X3516977Y975738D1*
X3519354Y973306D1*
X3521730Y968553D1*
Y961368D1*
X3516977Y956615D1*
X3509792Y954183D1*
X3500230D1*
X3493045Y956615D1*
X3488237Y961368D1*
X3537170Y994806D2*
X3541978Y997238D1*
X3549163Y1004368D1*
Y954183D1*
X2630071Y1055791D2*
Y1005551D1*
X2663564Y1055791D2*
Y1005551D1*
X2630071Y1031859D2*
X2663564D1*
X2683812Y1055736D2*
X2710065D1*
X2695750Y1036613D1*
X2702935D1*
X2707689Y1034236D1*
X2710065Y1031859D1*
X2712497Y1024674D1*
Y1019921D1*
X2710065Y1012736D1*
X2705312Y1007928D1*
X2698127Y1005551D1*
X2690942D1*
X2683812Y1007928D1*
X2681435Y1010360D1*
X2679004Y1015113D1*
X2064409Y813237D2*
Y834737D1*
X2061977Y841922D1*
X2059600Y844354D1*
X2054847Y846730D1*
X2050039D1*
X2045285Y844354D1*
X2042854Y841922D1*
X2040477Y834737D1*
Y813237D1*
X2090717D1*
X2064409Y829984D2*
X2090717Y846730D1*
X2050094Y862170D2*
X2047662Y866978D1*
X2040532Y874163D1*
X2090717D1*
X2410980Y1009738D2*
X2406227Y1014546D1*
X2399042Y1016923D1*
X2389481D1*
X2382295Y1014546D1*
X2377487Y1009738D1*
Y1004985D1*
X2379919Y1000176D1*
X2382295Y997800D1*
X2387049Y995423D1*
X2401419Y990615D1*
X2406227Y988238D1*
X2408604Y985806D1*
X2410980Y981053D1*
Y973868D1*
X2406227Y969115D1*
X2399042Y966683D1*
X2389481D1*
X2382295Y969115D1*
X2377487Y973868D1*
X2455105Y1016868D2*
X2431228D1*
X2428851Y995368D1*
X2431228Y997745D1*
X2438413Y1000176D1*
X2445543D1*
X2452728Y997745D1*
X2457536Y992991D1*
X2459913Y985806D1*
Y981053D1*
X2457536Y973868D1*
X2452728Y969060D1*
X2445543Y966683D1*
X2438413D1*
X2431228Y969060D1*
X2428851Y971492D1*
X2426420Y976245D1*
X4767925Y854423D2*
Y804183D1*
X4796609D1*
X4843110Y854423D2*
X4812049D1*
Y804183D1*
X4843110D1*
X4812049Y830491D2*
X4831172D1*
X4858549Y854423D2*
Y804183D1*
X4875296D1*
X4882481Y806615D1*
X4887290Y811368D1*
X4889666Y816177D1*
X4892043Y823306D1*
Y835300D1*
X4889666Y842485D1*
X4887290Y847238D1*
X4882481Y852046D1*
X4875296Y854423D1*
X4858549D1*
X4907482Y844806D2*
X4912290Y847238D1*
X4919475Y854368D1*
Y804183D1*
X4332175Y854423D2*
Y804183D1*
X4360859D1*
X4407360Y854423D2*
X4376299D1*
Y804183D1*
X4407360D1*
X4376299Y830491D2*
X4395422D1*
X4422799Y854423D2*
Y804183D1*
X4439546D1*
X4446731Y806615D1*
X4451540Y811368D1*
X4453916Y816177D1*
X4456293Y823306D1*
Y835300D1*
X4453916Y842485D1*
X4451540Y847238D1*
X4446731Y852046D1*
X4439546Y854423D1*
X4422799D1*
X4474164Y842430D2*
Y844806D1*
X4476541Y849615D1*
X4478917Y851991D1*
X4483726Y854368D1*
X4493287D1*
X4498040Y851991D1*
X4500417Y849615D1*
X4502849Y844806D1*
Y840053D1*
X4500417Y835245D1*
X4495664Y828115D1*
X4471732Y804183D1*
X4505225D1*
X4757175Y1104423D2*
Y1054183D1*
X4785859D1*
X4832360Y1104423D2*
X4801299D1*
Y1054183D1*
X4832360D1*
X4801299Y1080491D2*
X4820422D1*
X4847799Y1104423D2*
Y1054183D1*
X4864546D1*
X4871731Y1056615D1*
X4876540Y1061368D1*
X4878916Y1066177D1*
X4881293Y1073306D1*
Y1085300D1*
X4878916Y1092485D1*
X4876540Y1097238D1*
X4871731Y1102046D1*
X4864546Y1104423D1*
X4847799D1*
X4901541Y1104368D2*
X4927794D1*
X4913479Y1085245D1*
X4920664D1*
X4925417Y1082868D1*
X4927794Y1080491D1*
X4930225Y1073306D1*
Y1068553D1*
X4927794Y1061368D1*
X4923040Y1056560D1*
X4915855Y1054183D1*
X4908670D1*
X4901541Y1056560D1*
X4899164Y1058992D1*
X4896732Y1063745D1*
X4330986Y1104423D2*
Y1054183D1*
X4359671D1*
X4406172Y1104423D2*
X4375110D1*
Y1054183D1*
X4406172D1*
X4375110Y1080491D2*
X4394234D1*
X4421611Y1104423D2*
Y1054183D1*
X4438358D1*
X4445543Y1056615D1*
X4450351Y1061368D1*
X4452728Y1066177D1*
X4455105Y1073306D1*
Y1085300D1*
X4452728Y1092485D1*
X4450351Y1097238D1*
X4445543Y1102046D1*
X4438358Y1104423D1*
X4421611D1*
X4494475Y1054183D2*
Y1104368D1*
X4470544Y1070930D1*
X4506414D1*
X3932175Y1104423D2*
Y1054183D1*
X3960859D1*
X4007360Y1104423D2*
X3976299D1*
Y1054183D1*
X4007360D1*
X3976299Y1080491D2*
X3995422D1*
X4022799Y1104423D2*
Y1054183D1*
X4039546D1*
X4046731Y1056615D1*
X4051540Y1061368D1*
X4053916Y1066177D1*
X4056293Y1073306D1*
Y1085300D1*
X4053916Y1092485D1*
X4051540Y1097238D1*
X4046731Y1102046D1*
X4039546Y1104423D1*
X4022799D1*
X4100417Y1104368D2*
X4076541D1*
X4074164Y1082868D1*
X4076541Y1085245D1*
X4083726Y1087676D1*
X4090855D1*
X4098040Y1085245D1*
X4102849Y1080491D1*
X4105225Y1073306D1*
Y1068553D1*
X4102849Y1061368D1*
X4098040Y1056560D1*
X4090855Y1054183D1*
X4083726D1*
X4076541Y1056560D1*
X4074164Y1058992D1*
X4071732Y1063745D1*
X3933391Y854423D2*
Y804183D1*
X3962075D1*
X4008576Y854423D2*
X3977515D1*
Y804183D1*
X4008576D1*
X3977515Y830491D2*
X3996638D1*
X4024015Y854423D2*
Y804183D1*
X4040762D1*
X4047947Y806615D1*
X4052756Y811368D1*
X4055132Y816177D1*
X4057509Y823306D1*
Y835300D1*
X4055132Y842485D1*
X4052756Y847238D1*
X4047947Y852046D1*
X4040762Y854423D1*
X4024015D1*
X4101633Y847238D2*
X4099256Y851991D1*
X4092071Y854368D1*
X4087318D1*
X4080133Y851991D1*
X4075325Y844806D1*
X4072948Y832868D1*
Y820930D1*
X4075325Y811368D1*
X4080133Y806560D1*
X4087318Y804183D1*
X4089695D1*
X4096824Y806560D1*
X4101633Y811368D1*
X4104009Y818553D1*
Y820930D1*
X4101633Y828115D1*
X4096824Y832868D1*
X4089695Y835245D1*
X4087318D1*
X4080133Y832868D1*
X4075325Y828115D1*
X4072948Y820930D1*
X844461Y497522D2*
X842084Y502275D1*
X837276Y507084D1*
X832522Y509460D1*
X822961D1*
X818152Y507084D1*
X813399Y502275D1*
X810967Y497522D1*
X808591Y490337D1*
Y478344D1*
X810967Y471214D1*
X813399Y466406D1*
X818152Y461652D1*
X822961Y459220D1*
X832522D1*
X837276Y461652D1*
X842084Y466406D1*
X844461Y471214D1*
X859900Y509460D2*
Y473591D1*
X862276Y466406D1*
X867085Y461652D1*
X874270Y459220D1*
X879023D1*
X886208Y461652D1*
X891017Y466406D1*
X893393Y473591D1*
Y509460D1*
X908832Y485529D2*
X930332D1*
X937517Y487961D1*
X939949Y490337D1*
X942326Y495090D1*
Y499899D1*
X939949Y504652D1*
X937517Y507084D1*
X930332Y509460D1*
X908832D1*
Y459220D1*
X925579Y485529D2*
X942326Y459220D1*
X957765Y485529D2*
X979265D1*
X986450Y487961D1*
X988882Y490337D1*
X991258Y495090D1*
Y499899D1*
X988882Y504652D1*
X986450Y507084D1*
X979265Y509460D1*
X957765D1*
Y459220D1*
X974512Y485529D2*
X991258Y459220D1*
X1037759Y509460D2*
X1006698D1*
Y459220D1*
X1037759D1*
X1006698Y485529D2*
X1025821D1*
X1086692Y509460D2*
Y459220D1*
X1053198Y509460D1*
Y459220D1*
X1118878Y509460D2*
Y459220D1*
X1102131Y509460D2*
X1135624D1*
X1199664D2*
X1211658Y459220D1*
X1223596Y509460D1*
X1235534Y459220D1*
X1247528Y509460D1*
X1294029D2*
X1262967D1*
Y459220D1*
X1294029D1*
X1262967Y485529D2*
X1282090D1*
X1347770Y459220D2*
X1328591Y509460D1*
X1309468Y459220D1*
X1316653Y475967D2*
X1340585D1*
X1379956Y509460D2*
Y459220D1*
X1363209Y509460D2*
X1396702D1*
X1412141D2*
Y459220D1*
X1445635Y509460D2*
Y459220D1*
X1412141Y485529D2*
X1445635D1*
X1492136Y509460D2*
X1461074D1*
Y459220D1*
X1492136D1*
X1461074Y485529D2*
X1480197D1*
X1507575D2*
X1529075D1*
X1536260Y487961D1*
X1538691Y490337D1*
X1541068Y495090D1*
Y499899D1*
X1538691Y504652D1*
X1536260Y507084D1*
X1529075Y509460D1*
X1507575D1*
Y459220D1*
X1524321Y485529D2*
X1541068Y459220D1*
X1605108Y492714D2*
X1619478Y459220D1*
X1633793Y492714D1*
X1663603Y509405D2*
X1656417Y507029D1*
X1651609Y499844D1*
X1649232Y487905D1*
Y480720D1*
X1651609Y468782D1*
X1656417Y461597D1*
X1663603Y459220D1*
X1668356D1*
X1675541Y461597D1*
X1680294Y468782D1*
X1682726Y480720D1*
Y487905D1*
X1680294Y499844D1*
X1675541Y507029D1*
X1668356Y509405D1*
X1663603D1*
X1680294Y499844D2*
X1651609Y468782D1*
X1700542Y464029D2*
X1698165Y461597D1*
X1700542Y459220D1*
X1702973Y461597D1*
X1700542Y464029D1*
X1747098Y509405D2*
X1723221D1*
X1720845Y487905D1*
X1723221Y490282D1*
X1730406Y492714D1*
X1737536D1*
X1744721Y490282D1*
X1749529Y485529D1*
X1751906Y478344D1*
Y473591D1*
X1749529Y466406D1*
X1744721Y461597D1*
X1737536Y459220D1*
X1730406D1*
X1723221Y461597D1*
X1720845Y464029D1*
X1718413Y468782D1*
X4352207Y553210D2*
X4321090D1*
Y502970D1*
Y529279D2*
X4340213D1*
X4396331Y536464D2*
Y502970D1*
Y529279D2*
X4391578Y534087D1*
X4386769Y536464D1*
X4379639D1*
X4374831Y534087D1*
X4370078Y529279D1*
X4367646Y522094D1*
Y517341D1*
X4370078Y510156D1*
X4374831Y505402D1*
X4379639Y502970D1*
X4386769D1*
X4391578Y505402D1*
X4396331Y510156D1*
X4411770Y553210D2*
Y502970D1*
X4427209Y553210D2*
Y502970D1*
X4442649D2*
X4476142Y553155D1*
X4491581Y553210D2*
X4503575Y502970D1*
X4515513Y553210D1*
X4527451Y502970D1*
X4539445Y553210D1*
X4554884D2*
X4557260Y550834D1*
X4559692Y553210D1*
X4557260Y555642D1*
X4554884Y553210D1*
X4557260Y536464D2*
Y502970D1*
X4575132Y536464D2*
Y502970D1*
Y526902D2*
X4582317Y534087D1*
X4587125Y536464D1*
X4594255D1*
X4599063Y534087D1*
X4601440Y526902D1*
Y502970D1*
X4624064Y553210D2*
Y512532D1*
X4626441Y505402D1*
X4631249Y502970D1*
X4636002D1*
X4616879Y536464D2*
X4633626D1*
X4651442Y522094D2*
X4680126D1*
Y526902D1*
X4677750Y531711D1*
X4675373Y534087D1*
X4670565Y536464D1*
X4663380D1*
X4658627Y534087D1*
X4653818Y529279D1*
X4651442Y522094D1*
Y517341D1*
X4653818Y510156D1*
X4658627Y505402D1*
X4663380Y502970D1*
X4670565D1*
X4675373Y505402D1*
X4680126Y510156D1*
X4695566Y536464D2*
Y502970D1*
Y522094D2*
X4697998Y529279D1*
X4702751Y534087D1*
X4707559Y536464D1*
X4714744D1*
X4781216Y541217D2*
Y543594D1*
X4783593Y548402D1*
X4785970Y550779D1*
X4790778Y553155D1*
X4800340D1*
X4805093Y550779D1*
X4807469Y548402D1*
X4809901Y543594D1*
Y538840D1*
X4807469Y534032D1*
X4802716Y526902D1*
X4778784Y502970D1*
X4812278D1*
X4842087Y553155D2*
X4834902Y550779D1*
X4830094Y543594D1*
X4827717Y531655D1*
Y524470D1*
X4830094Y512532D1*
X4834902Y505347D1*
X4842087Y502970D1*
X4846840D1*
X4854025Y505347D1*
X4858779Y512532D1*
X4861210Y524470D1*
Y531655D1*
X4858779Y543594D1*
X4854025Y550779D1*
X4846840Y553155D1*
X4842087D1*
X4858779Y543594D2*
X4830094Y512532D1*
X4876650Y543594D2*
X4881458Y546025D1*
X4888643Y553155D1*
Y502970D1*
X4935199Y536464D2*
X4932767Y529279D1*
X4928014Y524470D1*
X4920829Y522094D1*
X4918452D1*
X4911267Y524470D1*
X4906514Y529279D1*
X4904082Y536464D1*
Y538840D1*
X4906514Y546025D1*
X4911267Y550779D1*
X4918452Y553155D1*
X4920829D1*
X4928014Y550779D1*
X4932767Y546025D1*
X4935199Y536464D1*
Y524470D1*
X4932767Y512532D1*
X4928014Y505347D1*
X4920829Y502970D1*
X4916076D1*
X4908891Y505347D1*
X4906514Y510156D1*
X659275Y897434D2*
D54*
X663122Y899380D1*
X668870Y905084D1*
Y864936D1*
X711863D2*
X696520Y905128D1*
X681222Y864936D1*
X686970Y878333D2*
X706115D1*
X759288Y897434D2*
X763135Y899380D1*
X768883Y905084D1*
Y864936D1*
X781234Y905128D2*
Y864936D1*
X798478D1*
X804226Y866881D1*
X806127Y868783D1*
X808029Y872585D1*
Y878333D1*
X806127Y882180D1*
X804226Y884081D1*
X798478Y885983D1*
X804226Y887928D1*
X806127Y889829D1*
X808029Y893632D1*
Y897479D1*
X806127Y901281D1*
X804226Y903227D1*
X798478Y905128D1*
X781234D1*
Y885983D2*
X798478D1*
X848721Y895533D2*
Y897434D1*
X850622Y901281D1*
X852523Y903183D1*
X856370Y905084D1*
X864019D1*
X867822Y903183D1*
X869723Y901281D1*
X871669Y897434D1*
Y893632D1*
X869723Y889785D1*
X865921Y884081D1*
X846775Y864936D1*
X873570D1*
X916563D2*
X901220Y905128D1*
X885921Y864936D1*
X891669Y878333D2*
X910815D1*
X948733Y895533D2*
Y897434D1*
X950635Y901281D1*
X952536Y903183D1*
X956383Y905084D1*
X964032D1*
X967834Y903183D1*
X969736Y901281D1*
X971681Y897434D1*
Y893632D1*
X969736Y889785D1*
X965933Y884081D1*
X946788Y864936D1*
X973583D1*
X985934Y905128D2*
Y864936D1*
X1003178D1*
X1008926Y866881D1*
X1010827Y868783D1*
X1012729Y872585D1*
Y878333D1*
X1010827Y882180D1*
X1008926Y884081D1*
X1003178Y885983D1*
X1008926Y887928D1*
X1010827Y889829D1*
X1012729Y893632D1*
Y897479D1*
X1010827Y901281D1*
X1008926Y903227D1*
X1003178Y905128D1*
X985934D1*
Y885983D2*
X1003178D1*
X1521775Y897434D2*
X1525622Y899380D1*
X1531370Y905084D1*
Y864936D1*
X1574363D2*
X1559020Y905128D1*
X1543722Y864936D1*
X1549470Y878333D2*
X1568615D1*
X1621788Y897434D2*
X1625635Y899380D1*
X1631383Y905084D1*
Y864936D1*
X1643734Y905128D2*
Y864936D1*
X1660978D1*
X1666726Y866881D1*
X1668627Y868783D1*
X1670529Y872585D1*
Y878333D1*
X1668627Y882180D1*
X1666726Y884081D1*
X1660978Y885983D1*
X1666726Y887928D1*
X1668627Y889829D1*
X1670529Y893632D1*
Y897479D1*
X1668627Y901281D1*
X1666726Y903227D1*
X1660978Y905128D1*
X1643734D1*
Y885983D2*
X1660978D1*
X1711221Y895533D2*
Y897434D1*
X1713122Y901281D1*
X1715023Y903183D1*
X1718870Y905084D1*
X1726519D1*
X1730322Y903183D1*
X1732223Y901281D1*
X1734169Y897434D1*
Y893632D1*
X1732223Y889785D1*
X1728421Y884081D1*
X1709275Y864936D1*
X1736070D1*
X1779063D2*
X1763720Y905128D1*
X1748421Y864936D1*
X1754169Y878333D2*
X1773315D1*
X1811233Y895533D2*
Y897434D1*
X1813135Y901281D1*
X1815036Y903183D1*
X1818883Y905084D1*
X1826532D1*
X1830334Y903183D1*
X1832236Y901281D1*
X1834181Y897434D1*
Y893632D1*
X1832236Y889785D1*
X1828433Y884081D1*
X1809288Y864936D1*
X1836083D1*
X1848434Y905128D2*
Y864936D1*
X1865678D1*
X1871426Y866881D1*
X1873327Y868783D1*
X1875229Y872585D1*
Y878333D1*
X1873327Y882180D1*
X1871426Y884081D1*
X1865678Y885983D1*
X1871426Y887928D1*
X1873327Y889829D1*
X1875229Y893632D1*
Y897479D1*
X1873327Y901281D1*
X1871426Y903227D1*
X1865678Y905128D1*
X1848434D1*
Y885983D2*
X1865678D1*
X5346775Y897434D2*
X5350622Y899380D1*
X5356370Y905084D1*
Y864936D1*
X5399363D2*
X5384020Y905128D1*
X5368722Y864936D1*
X5374470Y878333D2*
X5393615D1*
X5446788Y897434D2*
X5450635Y899380D1*
X5456383Y905084D1*
Y864936D1*
X5468734Y905128D2*
Y864936D1*
X5485978D1*
X5491726Y866881D1*
X5493627Y868783D1*
X5495529Y872585D1*
Y878333D1*
X5493627Y882180D1*
X5491726Y884081D1*
X5485978Y885983D1*
X5491726Y887928D1*
X5493627Y889829D1*
X5495529Y893632D1*
Y897479D1*
X5493627Y901281D1*
X5491726Y903227D1*
X5485978Y905128D1*
X5468734D1*
Y885983D2*
X5485978D1*
X5536221Y895533D2*
Y897434D1*
X5538122Y901281D1*
X5540023Y903183D1*
X5543870Y905084D1*
X5551519D1*
X5555322Y903183D1*
X5557223Y901281D1*
X5559169Y897434D1*
Y893632D1*
X5557223Y889785D1*
X5553421Y884081D1*
X5534275Y864936D1*
X5561070D1*
X5604063D2*
X5588720Y905128D1*
X5573421Y864936D1*
X5579169Y878333D2*
X5598315D1*
X5636233Y895533D2*
Y897434D1*
X5638135Y901281D1*
X5640036Y903183D1*
X5643883Y905084D1*
X5651532D1*
X5655334Y903183D1*
X5657236Y901281D1*
X5659181Y897434D1*
Y893632D1*
X5657236Y889785D1*
X5653433Y884081D1*
X5634288Y864936D1*
X5661083D1*
X5673434Y905128D2*
Y864936D1*
X5690678D1*
X5696426Y866881D1*
X5698327Y868783D1*
X5700229Y872585D1*
Y878333D1*
X5698327Y882180D1*
X5696426Y884081D1*
X5690678Y885983D1*
X5696426Y887928D1*
X5698327Y889829D1*
X5700229Y893632D1*
Y897479D1*
X5698327Y901281D1*
X5696426Y903227D1*
X5690678Y905128D1*
X5673434D1*
Y885983D2*
X5690678D1*
X5784292Y1191170D2*
X5788138Y1193115D1*
X5793886Y1198819D1*
Y1158671D1*
X5808183Y1189268D2*
Y1191170D1*
X5810084Y1195016D1*
X5811986Y1196918D1*
X5815833Y1198819D1*
X5823482D1*
X5827284Y1196918D1*
X5829186Y1195016D1*
X5831131Y1191170D1*
Y1187367D1*
X5829186Y1183520D1*
X5825383Y1177816D1*
X5806238Y1158671D1*
X5833032D1*
X5862584Y1195967D2*
Y1161523D1*
X5845384Y1178723D2*
X5879828D1*
X5832247Y1105099D2*
X5813146D1*
X5811245Y1087899D1*
X5813146Y1089800D1*
X5818894Y1091746D1*
X5824598D1*
X5830346Y1089800D1*
X5834192Y1085998D1*
X5836094Y1080250D1*
Y1076447D1*
X5834192Y1070699D1*
X5830346Y1066852D1*
X5824598Y1064951D1*
X5818894D1*
X5813146Y1066852D1*
X5811245Y1068798D1*
X5809299Y1072600D1*
X5865645Y1102247D2*
Y1067803D1*
X5848445Y1085003D2*
X5882889D1*
X5800496Y995575D2*
X5798594Y999378D1*
X5794748Y1003224D1*
X5790945Y1005126D1*
X5783296D1*
X5779449Y1003224D1*
X5775646Y999378D1*
X5773701Y995575D1*
X5771800Y989827D1*
Y980232D1*
X5773701Y974528D1*
X5775646Y970682D1*
X5779449Y966879D1*
X5783296Y964934D1*
X5790945D1*
X5794748Y966879D1*
X5798594Y970682D1*
X5800496Y974528D1*
Y980232D1*
X5790945D1*
X5839642Y1005126D2*
Y964934D1*
X5812847Y1005126D1*
Y964934D1*
X5851993Y1005126D2*
Y964934D1*
X5865390D1*
X5871138Y966879D1*
X5874985Y970682D1*
X5876886Y974528D1*
X5878788Y980232D1*
Y989827D1*
X5876886Y995575D1*
X5874985Y999378D1*
X5871138Y1003224D1*
X5865390Y1005126D1*
X5851993D1*
X5879406Y527832D2*
X5858404D1*
X5869856Y543131D1*
X5864108D1*
X5860305Y545032D1*
X5858404Y546934D1*
X5856458Y552682D1*
Y556484D1*
X5858404Y562232D1*
X5862206Y566079D1*
X5867954Y567980D1*
X5873702D1*
X5879406Y566079D1*
X5881307Y564133D1*
X5883253Y560331D1*
X5844107Y541186D2*
X5832611Y567980D1*
X5821159Y541186D1*
X5804961Y527832D2*
X5783958D1*
X5795410Y543131D1*
X5789662D1*
X5785860Y545032D1*
X5783958Y546934D1*
X5782013Y552682D1*
Y556484D1*
X5783958Y562232D1*
X5787761Y566079D1*
X5793509Y567980D1*
X5799257D1*
X5804961Y566079D1*
X5806862Y564133D1*
X5808808Y560331D1*
X5856458Y733534D2*
X5860261Y729688D1*
X5866009Y727786D1*
X5873658D1*
X5879406Y729688D1*
X5883253Y733534D1*
Y737337D1*
X5881307Y741184D1*
X5879406Y743085D1*
X5875604Y744986D1*
X5864108Y748833D1*
X5860261Y750734D1*
X5858360Y752680D1*
X5856458Y756482D1*
Y762230D1*
X5860261Y766033D1*
X5866009Y767978D1*
X5873658D1*
X5879406Y766033D1*
X5883253Y762230D1*
X5844107Y727786D2*
Y767978D1*
X5830710D1*
X5824962Y766033D1*
X5821115Y762230D1*
X5819214Y758384D1*
X5817312Y752680D1*
Y743085D1*
X5819213Y737337D1*
X5821115Y733534D1*
X5824962Y729688D1*
X5830710Y727786D1*
X5844107D1*
X5774319Y767978D2*
X5789662Y727786D1*
X5804961Y767978D1*
X5799213Y754581D2*
X5780067D1*
X5854557Y837317D2*
X5856458Y833514D1*
X5860305Y829668D1*
X5864108Y827766D1*
X5871757D1*
X5875604Y829668D1*
X5879406Y833514D1*
X5881352Y837317D1*
X5883253Y843065D1*
Y852660D1*
X5881352Y858364D1*
X5879406Y862210D1*
X5875604Y866013D1*
X5871757Y867958D1*
X5864108D1*
X5860305Y866013D1*
X5856458Y862210D1*
X5854557Y858364D1*
Y852660D1*
X5864108D1*
X5815411Y827766D2*
Y867958D1*
X5842206Y827766D1*
Y867958D1*
X5803060Y827766D2*
Y867958D1*
X5789662D1*
X5783914Y866013D1*
X5780067Y862210D1*
X5778166Y858364D1*
X5776265Y852660D1*
Y843065D1*
X5778166Y837317D1*
X5780067Y833514D1*
X5783914Y829668D1*
X5789662Y827766D1*
X5803060D1*
X5856458Y633516D2*
X5860261Y629670D1*
X5866009Y627768D1*
X5873658D1*
X5879406Y629669D1*
X5883253Y633516D1*
Y637319D1*
X5881307Y641166D1*
X5879406Y643067D1*
X5875604Y644968D1*
X5864108Y648815D1*
X5860261Y650716D1*
X5858360Y652662D1*
X5856458Y656464D1*
Y662212D1*
X5860261Y666015D1*
X5866009Y667960D1*
X5873658D1*
X5879406Y666015D1*
X5883253Y662212D1*
X5815411Y637319D2*
X5817312Y633516D1*
X5821159Y629670D1*
X5824961Y627768D1*
X5832611D1*
X5836458Y629670D1*
X5840260Y633516D1*
X5842206Y637319D1*
X5844107Y643067D1*
Y652662D1*
X5842206Y658365D1*
X5840260Y662212D1*
X5836458Y666015D1*
X5832611Y667960D1*
X5824962D1*
X5821159Y666015D1*
X5817312Y662212D1*
X5815411Y658365D1*
X5803060Y627768D2*
Y667960D1*
X5780112D1*
X2637342Y1232842D2*
X2633540Y1230941D1*
X2629693Y1227094D1*
X2627792Y1223291D1*
Y1215642D1*
X2629693Y1211795D1*
X2633540Y1207993D1*
X2637342Y1206047D1*
X2643090Y1204146D1*
X2652685D1*
X2658389Y1206047D1*
X2662236Y1207993D1*
X2666038Y1211795D1*
X2667984Y1215642D1*
Y1223291D1*
X2666038Y1227094D1*
X2662236Y1230940D1*
X2658389Y1232842D1*
X2652685D1*
Y1223291D1*
X2627792Y1271988D2*
X2667984D1*
X2627792Y1245193D1*
X2667984D1*
X2627792Y1284339D2*
X2667984D1*
Y1297736D1*
X2666038Y1303485D1*
X2662236Y1307331D1*
X2658389Y1309233D1*
X2652685Y1311134D1*
X2643090D1*
X2637342Y1309233D1*
X2633540Y1307331D1*
X2629693Y1303485D1*
X2627792Y1297737D1*
Y1284339D1*
X2427779Y1204146D2*
X2467971Y1219444D1*
X2427779Y1234743D1*
X2437329Y1275790D2*
X2433527Y1273889D1*
X2429680Y1270042D1*
X2427779Y1266240D1*
Y1258590D1*
X2429680Y1254744D1*
X2433527Y1250941D1*
X2437329Y1248996D1*
X2443077Y1247094D1*
X2452672D1*
X2458376Y1248996D1*
X2462223Y1250941D1*
X2466025Y1254744D1*
X2467971Y1258590D1*
Y1266240D1*
X2466025Y1270042D1*
X2462223Y1273889D1*
X2458376Y1275790D1*
X2437329Y1316838D2*
X2433527Y1314936D1*
X2429680Y1311090D1*
X2427779Y1307287D1*
Y1299638D1*
X2429680Y1295791D1*
X2433527Y1291988D1*
X2437329Y1290043D1*
X2443077Y1288142D1*
X2452672D1*
X2458376Y1290043D1*
X2462223Y1291988D1*
X2466025Y1295791D1*
X2467971Y1299638D1*
Y1307287D1*
X2466025Y1311090D1*
X2462223Y1314936D1*
X2458376Y1316838D1*
X2546917Y1204146D2*
Y1221346D1*
X2544971Y1227094D1*
X2543070Y1229039D1*
X2539267Y1230941D1*
X2535421D1*
X2531618Y1229039D1*
X2529673Y1227094D1*
X2527771Y1221346D1*
Y1204146D1*
X2567963D1*
X2546917Y1217543D2*
X2567963Y1230940D1*
X2527771Y1243292D2*
X2567963Y1270086D1*
X2527771Y1270087D2*
X2567963Y1243292D1*
X4739000Y664735D2*
Y630291D1*
X4721800Y647491D2*
X4756244D1*
X4834303Y667631D2*
Y627439D1*
X4847700D1*
X4853448Y629385D1*
X4857295Y633187D1*
X4859196Y637034D1*
X4861098Y642738D1*
Y652333D1*
X4859196Y658081D1*
X4857295Y661883D1*
X4853448Y665730D1*
X4847700Y667631D1*
X4834303D1*
X4934293Y647513D2*
X4956401D1*
X4314000Y664735D2*
Y630291D1*
X4296800Y647491D2*
X4331244D1*
X4409303Y667631D2*
Y627439D1*
X4422700D1*
X4428448Y629385D1*
X4432295Y633187D1*
X4434196Y637034D1*
X4436098Y642738D1*
Y652333D1*
X4434196Y658081D1*
X4432295Y661883D1*
X4428448Y665730D1*
X4422700Y667631D1*
X4409303D1*
X4509293Y647513D2*
X4531401D1*
X4739000Y914735D2*
Y880291D1*
X4721800Y897491D2*
X4756244D1*
X4834303Y917631D2*
Y877439D1*
X4847700D1*
X4853448Y879385D1*
X4857295Y883187D1*
X4859196Y887034D1*
X4861098Y892738D1*
Y902333D1*
X4859196Y908081D1*
X4857295Y911883D1*
X4853448Y915730D1*
X4847700Y917631D1*
X4834303D1*
X4934293Y897513D2*
X4956401D1*
X4314000Y914735D2*
Y880291D1*
X4296800Y897491D2*
X4331244D1*
X4409303Y917631D2*
Y877439D1*
X4422700D1*
X4428448Y879385D1*
X4432295Y883187D1*
X4434196Y887034D1*
X4436098Y892738D1*
Y902333D1*
X4434196Y908081D1*
X4432295Y911883D1*
X4428448Y915730D1*
X4422700Y917631D1*
X4409303D1*
X4509293Y897513D2*
X4531401D1*
X3914000Y914735D2*
Y880291D1*
X3896800Y897491D2*
X3931244D1*
X4009303Y917631D2*
Y877439D1*
X4022700D1*
X4028448Y879385D1*
X4032295Y883187D1*
X4034196Y887034D1*
X4036098Y892738D1*
Y902333D1*
X4034196Y908081D1*
X4032295Y911883D1*
X4028448Y915730D1*
X4022700Y917631D1*
X4009303D1*
X4109293Y897513D2*
X4131401D1*
X3914000Y664735D2*
Y630291D1*
X3896800Y647491D2*
X3931244D1*
X4009303Y667631D2*
Y627439D1*
X4022700D1*
X4028448Y629385D1*
X4032295Y633187D1*
X4034196Y637034D1*
X4036098Y642738D1*
Y652333D1*
X4034196Y658081D1*
X4032295Y661883D1*
X4028448Y665730D1*
X4022700Y667631D1*
X4009303D1*
X4109293Y647513D2*
X4131401D1*
M02*
